<?xml version="1.0" encoding="UTF-8" standalone="no"?>
<!-- Created with Inkscape (http://www.inkscape.org/) -->

<svg
   xmlns:dc="http://purl.org/dc/elements/1.1/"
   xmlns:cc="http://creativecommons.org/ns#"
   xmlns:rdf="http://www.w3.org/1999/02/22-rdf-syntax-ns#"
   xmlns:svg="http://www.w3.org/2000/svg"
   xmlns="http://www.w3.org/2000/svg"
   xmlns:xlink="http://www.w3.org/1999/xlink"
   version="1.1"
   width="22"
   height="22"
   id="svg2">
  <metadata
     id="metadata3115">
    <rdf:RDF>
      <cc:Work
         rdf:about="">
        <dc:format>image/svg+xml</dc:format>
        <dc:type
           rdf:resource="http://purl.org/dc/dcmitype/StillImage" />
        <dc:title></dc:title>
      </cc:Work>
    </rdf:RDF>
  </metadata>
  <defs
     id="defs4">
    <filter
       color-interpolation-filters="sRGB"
       id="filter3825">
      <feGaussianBlur
         id="feGaussianBlur3827"
         stdDeviation="0.49531645" />
    </filter>
  </defs>
  <use
     transform="translate(0.49317947,0.38358404)"
     id="use3039"
     style="filter:url(#filter3825)"
     x="0"
     y="0"
     width="22"
     height="22"
     xlink:href="#g3010" />
  <g
     id="g3010"
     style="stroke-width:0.5;stroke-miterlimit:4;stroke-dasharray:none">
    <path
       d="m 9.77086,2.2673666 c 0.260285,-0.433809 0.867618,-0.9543798 1.301427,-0.9543798 l 9.543798,5.3792316 c 0.173524,0.1735236 0.607333,1.301427 0.260285,1.735236 L 11.419334,13.98021 c -0.260285,0.08676 -1.388189,0 -1.7352358,-0.867618 L 9.77086,2.2673666 z"
       id="path3586"
       style="fill:#404040;fill-opacity:1;fill-rule:evenodd;stroke:#404040;stroke-width:0.5;stroke-linecap:round;stroke-linejoin:round;stroke-miterlimit:4;stroke-opacity:1;stroke-dasharray:none" />
    <path
       d="m 10.710405,13.320061 c -0.247896,0.430318 -0.65352,0.430312 -0.9014161,-5e-6 L 7.0628107,8.5530318 c -0.2478868,-0.4303007 -0.2478966,-1.1344235 0,-1.564741 L 9.8089889,2.2212669 c 0.2478901,-0.4303063 0.6535291,-0.4303063 0.9014161,-5.6e-6 l 2.746178,4.7670239 c 0.247897,0.4303176 0.24789,1.1344459 0,1.5647522 l -2.746178,4.7670236 z"
       id="path3491"
       style="fill:#ffffff;fill-opacity:1;stroke:#000000;stroke-width:0.5;stroke-miterlimit:4;stroke-dasharray:none" />
    <circle
       cx="278.5"
       cy="278.5"
       r="57.115234"
       transform="matrix(0.00431067,-0.00919099,0.00431067,0.00919099,7.9836534,7.4894113)"
       id="circle3493"
       style="fill:#404040;fill-opacity:1;stroke:#000000;stroke-width:56.1696167;stroke-miterlimit:4;stroke-opacity:1;stroke-dasharray:none" />
    <path
       d="m 20.417027,7.6596349 c 0.496614,-4.739e-4 0.699421,0.350809 0.450703,0.7806527 l -2.755275,4.7617734 c -0.248708,0.429827 -0.858492,0.781896 -1.355106,0.78237 l -5.501454,0.0053 c -0.496601,4.74e-4 -0.699421,-0.35082 -0.450713,-0.780647 l 2.755276,-4.7617731 c 0.248717,-0.4298436 0.858514,-0.7819022 1.355115,-0.7823761 l 5.501454,-0.00525 z"
       id="path3566"
       style="fill:#ffffff;fill-opacity:1;stroke:#000000;stroke-width:0.5;stroke-miterlimit:4;stroke-dasharray:none" />
    <circle
       cx="117.02637"
       cy="439.97461"
       r="57.115234"
       transform="matrix(-0.00937309,9.0606728e-6,0.00469429,-0.0082168,17.181512,13.173584)"
       id="circle3560"
       style="fill:#404040;fill-opacity:1;stroke:#000000;stroke-width:56.98981094;stroke-miterlimit:4;stroke-opacity:1;stroke-dasharray:none" />
    <circle
       cx="439.97461"
       cy="439.97461"
       r="57.115234"
       transform="matrix(-0.00815032,8.155676e-6,0.0040819,-0.00739609,16.571187,12.673435)"
       id="circle3562"
       style="fill:#404040;fill-opacity:1;stroke:#000000;stroke-width:64.4171524;stroke-miterlimit:4;stroke-opacity:1;stroke-dasharray:none" />
    <circle
       cx="439.97314"
       cy="117.02588"
       r="57.114746"
       transform="matrix(-0.01328595,1.268066e-5,0.00665396,-0.01149963,17.683467,14.023774)"
       id="circle3564"
       style="fill:#404040;fill-opacity:1;stroke:#000000;stroke-width:40.46240616;stroke-miterlimit:4;stroke-opacity:1;stroke-dasharray:none" />
    <circle
       cx="278.5"
       cy="278.5"
       r="57.115234"
       transform="matrix(-0.00961764,6.9490136e-6,0.00481677,-0.00630181,17.189125,12.968402)"
       id="circle3568"
       style="fill:#404040;fill-opacity:1;stroke:#000000;stroke-width:64.24259186;stroke-miterlimit:4;stroke-opacity:1;stroke-dasharray:none" />
    <circle
       cx="117.02588"
       cy="117.02563"
       r="57.115479"
       transform="matrix(-0.00790579,6.3457104e-6,0.00395943,-0.0057547,17.087927,13.367836)"
       id="circle3570"
       style="fill:#404040;fill-opacity:1;stroke:#000000;stroke-width:74.14911652;stroke-miterlimit:4;stroke-opacity:1;stroke-dasharray:none" />
    <path
       d="M 10.659581,2.1039699 C 10.410863,1.6741263 10.61368,1.3228488 11.110294,1.3233228 l 5.501454,0.00525 c 0.496595,4.739e-4 1.106388,0.3525269 1.355106,0.7823705 l 2.755275,4.7617733 c 0.248711,0.4298324 0.04589,0.7811266 -0.450703,0.7806527 l -5.501454,-0.00525 C 14.273358,7.6476453 13.663568,7.2955755 13.414857,6.8657432 L 10.659581,2.1039699 z"
       id="path3580"
       style="fill:#ffffff;fill-opacity:1;stroke:#000000;stroke-width:0.5;stroke-miterlimit:4;stroke-dasharray:none" />
    <circle
       cx="117.02637"
       cy="439.97461"
       r="57.115234"
       transform="matrix(0.00432686,0.00630181,-0.00863943,-6.9490136e-6,16.500221,2.3793665)"
       id="circle3574"
       style="fill:#404040;fill-opacity:1;stroke:#000000;stroke-width:67.78205872;stroke-miterlimit:4;stroke-opacity:1;stroke-dasharray:none" />
    <circle
       cx="439.97461"
       cy="439.97461"
       r="57.115234"
       transform="matrix(0.00506173,0.00739609,-0.01010675,-8.1556769e-6,17.449014,2.5458202)"
       id="circle3576"
       style="fill:#404040;fill-opacity:1;stroke:#000000;stroke-width:57.84730148;stroke-miterlimit:4;stroke-opacity:1;stroke-dasharray:none" />
    <circle
       cx="439.97314"
       cy="117.02588"
       r="57.114746"
       transform="matrix(0.00383692,0.00712248,-0.00766116,-7.8539692e-6,17.290919,2.870745)"
       id="circle3578"
       style="fill:#404040;fill-opacity:1;stroke:#000000;stroke-width:67.70598602;stroke-miterlimit:4;stroke-opacity:1;stroke-dasharray:none" />
    <circle
       cx="117.02588"
       cy="117.02563"
       r="57.115479"
       transform="matrix(0.00432686,0.00602826,-0.00863944,-6.6473736e-6,16.719561,2.3975667)"
       id="circle3584"
       style="fill:#404040;fill-opacity:1;stroke:#000000;stroke-width:69.30286407;stroke-miterlimit:4;stroke-opacity:1;stroke-dasharray:none" />
    <g
       transform="matrix(0,0.03470472,-0.03470472,0,31.271733,-11.962296)"
       id="g3634"
       style="stroke-width:14.40726185;stroke-miterlimit:4;stroke-dasharray:none">
      <path
         d="m 628.93236,528.61822 c 7.5,-12.5 25,-27.5 37.5,-27.5 l 278.6825,160.82693 c 4.11647,6.65796 12.40666,21.07873 5.29642,41.57018 L 676.43236,866.11822 c -7.5,2.5 -40,0 -50,-25 l 2.5,-312.5 z"
         id="path3590"
         style="fill:#404040;fill-opacity:1;fill-rule:evenodd;stroke:#404040;stroke-width:14.40726185;stroke-linecap:round;stroke-linejoin:round;stroke-miterlimit:4;stroke-opacity:1;stroke-dasharray:none" />
      <path
         d="m 656.00495,846.19589 c -7.14303,12.3994 -18.83087,12.39924 -25.97389,-1.6e-4 L 550.90121,708.83622 c -7.14274,-12.39891 -7.14302,-32.68787 0,-45.08726 l 79.12985,-137.35951 c 7.14283,-12.39907 18.83114,-12.39907 25.97389,-1.6e-4 l 79.12984,137.35951 c 7.14303,12.39939 7.14284,32.68851 0,45.08758 l -79.12984,137.35951 z"
         id="path3594"
         style="fill:#ffffff;fill-opacity:1;stroke:#000000;stroke-width:14.40726185;stroke-miterlimit:4;stroke-dasharray:none" />
      <circle
         cx="278.5"
         cy="278.5"
         r="57.115234"
         transform="matrix(0.12978404,-0.25368614,0.12978404,0.25368614,575.68083,678.1885)"
         id="circle3602"
         style="fill:#404040;fill-opacity:1;stroke:#000000;stroke-width:56.14453125;stroke-miterlimit:4;stroke-opacity:1;stroke-dasharray:none" />
      <path
         d="m 935.69654,683.99391 c 14.3097,-0.0137 20.15348,10.10839 12.9868,22.49413 l -79.39191,137.2082 c -7.1664,12.38525 -24.73702,22.52998 -39.04672,22.54363 l -158.52176,0.1513 c -14.30933,0.0137 -20.15349,-10.10871 -12.98709,-22.49396 L 738.12778,706.689 c 7.16668,-12.38574 24.73767,-22.53013 39.047,-22.54379 l 158.52176,-0.1513 z"
         id="path3608"
         style="fill:#ffffff;fill-opacity:1;stroke:#000000;stroke-width:14.40726185;stroke-miterlimit:4;stroke-dasharray:none" />
      <circle
         cx="117.02637"
         cy="439.97461"
         r="57.115234"
         transform="matrix(-0.27712776,2.4369426e-4,0.13879296,-0.22099742,818.77709,852.14944)"
         id="circle3610"
         style="fill:#404040;fill-opacity:1;stroke:#000000;stroke-width:58.2328186;stroke-miterlimit:4;stroke-opacity:1;stroke-dasharray:none" />
      <circle
         cx="439.97314"
         cy="117.02588"
         r="57.114746"
         transform="matrix(-0.22779952,2.2630837e-4,0.11408806,-0.20523079,829.32393,838.26749)"
         id="circle3614"
         style="fill:#404040;fill-opacity:1;stroke:#000000;stroke-width:66.65055084;stroke-miterlimit:4;stroke-opacity:1;stroke-dasharray:none" />
      <path
         d="m 654.54044,523.91001 c -7.16668,-12.38573 -1.32262,-22.50762 12.98709,-22.49396 l 158.52176,0.1513 c 14.30914,0.0137 31.88004,10.15789 39.04672,22.54363 l 79.39191,137.2082 c 7.1665,12.38541 1.32234,22.50779 -12.9868,22.49413 l -158.52176,-0.1513 c -14.30971,-0.0137 -31.88051,-10.15838 -39.047,-22.54379 L 654.54044,523.91001 z"
         id="path3622"
         style="fill:#ffffff;fill-opacity:1;stroke:#000000;stroke-width:14.40726185;stroke-miterlimit:4;stroke-dasharray:none" />
      <circle
         cx="117.02637"
         cy="439.97461"
         r="57.115234"
         transform="matrix(0.1317346,0.20252752,-0.26303436,-2.2332746e-4,838.1154,529.70037)"
         id="circle3624"
         style="fill:#404040;fill-opacity:1;stroke:#000000;stroke-width:62.43859863;stroke-miterlimit:4;stroke-opacity:1;stroke-dasharray:none" />
      <circle
         cx="439.97314"
         cy="117.02588"
         r="57.114746"
         transform="matrix(0.11761727,0.19239949,-0.23484628,-2.1215927e-4,838.76034,546.41292)"
         id="circle3628"
         style="fill:#404040;fill-opacity:1;stroke:#000000;stroke-width:67.79655457;stroke-miterlimit:4;stroke-opacity:1;stroke-dasharray:none" />
      <circle
         cx="278.5"
         cy="278.5"
         r="57.115234"
         transform="matrix(0.10764416,0.17370076,-0.21493299,-1.9154014e-4,831.27338,546.09327)"
         id="circle3630"
         style="fill:#404040;fill-opacity:1;stroke:#000000;stroke-width:74.58457184;stroke-miterlimit:4;stroke-opacity:1;stroke-dasharray:none" />
    </g>
    <path
       d="m 8.0390603,17.540838 0.00891,-2.854901 0.1153456,-0.232721 c 0.06344,-0.127997 0.17594,-0.291651 0.25,-0.363678 0.090186,-0.08771 0.9132421,-0.581201 2.4922801,-1.494333 1.296694,-0.749857 2.383447,-1.377195 2.415007,-1.394085 0.05551,-0.02971 0.0571,0.06235 0.04862,2.822458 l -0.0088,2.853167 -0.11236,0.234375 c -0.0618,0.128906 -0.170263,0.291966 -0.241032,0.362355 -0.08721,0.08674 -0.886777,0.566134 -2.48139,1.487755 -1.2939944,0.747876 -2.3848501,1.37659 -2.4241232,1.397142 l -0.071405,0.03737 0.00891,-2.854901 0,0 z m 1.4464056,1.261674 c 0.1655125,-0.07578 0.407486,-0.33991 0.5034641,-0.549553 0.212319,-0.463766 0.126398,-0.911909 -0.2088111,-1.089107 -0.1267095,-0.06698 -0.4023378,-0.05697 -0.5473984,0.01989 -0.1644333,0.08712 -0.3549707,0.305931 -0.4712208,0.541148 -0.1003533,0.203051 -0.1146545,0.260821 -0.1170523,0.472835 -0.00229,0.202793 0.00981,0.26392 0.075482,0.381203 0.1457821,0.26035 0.4751529,0.356548 0.7655364,0.223586 z M 10.77978,16.612427 c 0.274824,-0.140205 0.522003,-0.53718 0.555089,-0.891483 0.03835,-0.410697 -0.189262,-0.704946 -0.543712,-0.702888 -0.53796,0.0031 -1.0151346,0.812952 -0.788895,1.33886 0.124151,0.288598 0.482092,0.406226 0.777518,0.255511 z m 1.321568,-2.065089 c 0.182675,-0.05073 0.436859,-0.306029 0.566069,-0.568543 0.323208,-0.656651 0.119143,-1.273925 -0.421146,-1.273925 -0.249117,0 -0.491355,0.154351 -0.676633,0.431144 -0.159346,0.238051 -0.226031,0.427687 -0.246755,0.70171 -0.0146,0.193067 -0.0062,0.25329 0.05494,0.395499 0.124476,0.289352 0.392972,0.405919 0.723524,0.314115 l 0,0 z"
       id="path3958"
       style="fill:#c8c8c8;fill-opacity:1;stroke:none" />
    <path
       d="M 14.37591,12.323362 C 14.37581,11.68241 14.36222,11.075526 14.34572,10.974731 14.30418,10.721078 14.22071,10.566314 13.998791,10.331475 13.894048,10.22064 13.772895,10.058921 13.729558,9.9721004 13.686221,9.88528 13.608451,9.7697325 13.556736,9.7153282 l -0.09403,-0.098917 0.274814,-0.4792081 c 0.304919,-0.5317018 0.445001,-0.6917916 0.740298,-0.8460303 l 0.195145,-0.1019278 2.886154,-0.00845 2.886154,-0.00845 -0.07767,0.1334471 c -0.04272,0.073396 -0.671396,1.1600097 -1.397057,2.4146969 -0.737561,1.275264 -1.369697,2.333769 -1.43348,2.400347 -0.06275,0.0655 -0.218801,0.170972 -0.346772,0.234375 l -0.232673,0.115278 -1.290764,0.0091 -1.290764,0.0091 -1.81e-4,-1.165366 0,0 z m 2.462128,0.968631 c 0.467158,-0.172968 0.751721,-0.595668 0.617408,-0.917123 -0.112841,-0.270068 -0.31652,-0.374565 -0.684097,-0.350975 -0.612575,0.03931 -1.108594,0.518118 -0.990619,0.956243 0.03663,0.13603 0.232159,0.337643 0.352386,0.363347 0.0391,0.0084 0.09923,0.02143 0.1336,0.02903 0.108488,0.02401 0.399944,-0.01707 0.571322,-0.08052 l 0,0 z M 15.971981,11.87326 c 0.511998,-0.151909 0.84161,-0.466774 0.84161,-0.803954 0,-0.476934 -0.482425,-0.693979 -1.109375,-0.499112 -0.630862,0.196083 -0.966417,0.647457 -0.76895,1.034359 0.07553,0.147981 0.156589,0.220525 0.305944,0.273792 0.163399,0.05828 0.525719,0.05575 0.730771,-0.0051 l 0,0 z m 2.188206,-1.523099 c 0.384026,-0.117649 0.718115,-0.3752102 0.858265,-0.6616674 0.07077,-0.1446453 0.08172,-0.2017956 0.07098,-0.3704944 -0.01648,-0.2588528 -0.107325,-0.3981358 -0.331955,-0.5089629 -0.148198,-0.073118 -0.190654,-0.079906 -0.40625,-0.064956 -0.569561,0.039495 -1.105142,0.4901258 -1.152025,0.9692995 -0.04648,0.4750002 0.439006,0.7966942 0.96099,0.6367812 l 0,0 z m -3.152449,-0.261502 c 0.225651,-0.1055949 0.48318,-0.3434894 0.571884,-0.5282822 0.03198,-0.066622 0.06366,-0.1984755 0.07039,-0.2930067 0.01771,-0.2485196 -0.08089,-0.4222087 -0.307462,-0.5416357 -0.149953,-0.07904 -0.19365,-0.08774 -0.377429,-0.075145 -0.290023,0.019875 -0.57518,0.1579709 -0.79186,0.383482 -0.260239,0.2708455 -0.33289,0.5752304 -0.201889,0.8458442 0.157757,0.3258814 0.59699,0.4143514 1.036363,0.2087444 z"
       id="path3962"
       style="fill:#8d8d8d;fill-opacity:1;fill-rule:nonzero;stroke:none" />
  </g>
  <g
     id="layer1" />
</svg>
