<?xml version="1.0" encoding="UTF-8" standalone="no"?>
<!-- Created with Inkscape (http://www.inkscape.org/) -->

<svg
   width="16"
   height="16"
   viewBox="0 0 4.2333333 4.2333333"
   version="1.1"
   id="svg7549"
   xmlns:xlink="http://www.w3.org/1999/xlink"
   xmlns="http://www.w3.org/2000/svg"
   xmlns:svg="http://www.w3.org/2000/svg">
  <defs
     id="defs7546" />
  <g
     id="layer1">
    <path
       id="path4919-8"
       style="color:#000000;fill:#fffffe;fill-rule:evenodd;stroke-width:1.00000001;stroke-linejoin:miter;stroke:#000006;stroke-opacity:1;stroke-miterlimit:4;stroke-dasharray:none;fill-opacity:1;stroke-linecap:butt"
       d="M 4.0019531 4.5039062 L 4.0019531 6.5039062 L 6.5039062 6.5039062 L 6.5039062 12.498047 A 1.0001001 1.0001001 0 0 0 7.5 13.501953 L 12.003906 13.501953 L 12.003906 11.501953 L 8.4960938 11.501953 L 8.4960938 6.5039062 L 13 6.5039062 L 13 4.5039062 L 4.0019531 4.5039062 z "
       transform="scale(0.26458333)" />
    <g
       id="src/libs/utils/images/classparent"
       transform="matrix(0.21789191,0,0,0.21789191,-39.173851,-119.94561)"
       style="fill:#c0c0c0;fill-opacity:1;stroke:#000000;stroke-width:1.21428;stroke-linejoin:miter;stroke-opacity:1">
      <path
         style="fill:#c0c0c0;fill-opacity:1;fill-rule:evenodd;stroke:#000000;stroke-width:1.21428px;stroke-linecap:butt;stroke-linejoin:miter;stroke-opacity:1"
         d="m 186.5,552 3,3 -5.5,5.5 -3,-3 z"
         id="path4895-8" />
    </g>
    <g
       id="src/libs/utils/images/classmemberfunction"
       transform="matrix(0.20352688,0,0,0.20352688,-36.126044,-112.04156)"
       style="fill:#c0c0c0;fill-opacity:1;stroke:#000000;stroke-width:1.29999;stroke-linejoin:miter;stroke-opacity:1">
      <path
         style="fill:#c0c0c0;fill-opacity:1;fill-rule:evenodd;stroke:#000000;stroke-width:1.29999px;stroke-linecap:butt;stroke-linejoin:miter;stroke-opacity:1"
         d="m 194.5,554.5 2.5,2.5 -4,4 -2.5,-2.5 z"
         id="cppclassmember" />
    </g>
    <g
       id="src/libs/utils/images/classmembervariable"
       transform="matrix(0.20352636,0,0,0.20352636,-36.125943,-111.61387)"
       style="fill:#c0c0c0;fill-opacity:1;stroke:#000000;stroke-width:1.3;stroke-linejoin:miter;stroke-opacity:1">
      <use
         x="0"
         y="0"
         xlink:href="#cppclassmember"
         id="use4914-9-5"
         transform="translate(0,7)"
         width="100%"
         height="100%"
         style="fill:#c0c0c0;fill-opacity:1;stroke:#000000;stroke-width:1.53636;stroke-linejoin:miter;stroke-opacity:1" />
    </g>
  </g>
</svg>
