<?xml version="1.0" encoding="UTF-8"?>
<!DOCTYPE svg  PUBLIC '-//W3C//DTD SVG 1.1//EN'  'http://www.w3.org/Graphics/SVG/1.1/DTD/svg11.dtd'>
<svg enable-background="new 0 0 612 792" version="1.1" viewBox="0 0 612 792" xml:space="preserve" xmlns="http://www.w3.org/2000/svg">
	<rect x="194.73" y="284.73" width="361.64" height="361.64" fill="#fff"/>
			<g transform="translate(8)">
				<rect x="409.27" y="284.73" width="27.818" height="27.818" fill="#888A85"/>
			</g>
			<g transform="translate(10)">
				<rect x="462.91" y="284.73" width="27.818" height="27.818" fill="#888A85"/>
			</g>
			<g transform="translate(12)">
				<rect x="516.55" y="284.73" width="27.817" height="27.818" fill="#888A85"/>
			</g>
			<g transform="translate(0 8)">
				<rect x="194.73" y="499.27" width="27.818" height="27.818" fill="#888A85"/>
			</g>
			<g transform="translate(0 10)">
				<rect x="194.73" y="552.91" width="27.818" height="27.818" fill="#888A85"/>
			</g>
			<g transform="translate(12 2)">
				<rect x="516.55" y="338.36" width="27.817" height="27.818" fill="#888A85"/>
			</g>
			<g transform="translate(12 4)">
				<rect x="516.55" y="392" width="27.817" height="27.818" fill="#888A85"/>
			</g>
			<g transform="translate(12 6)">
				<rect x="516.55" y="445.64" width="27.817" height="27.817" fill="#888A85"/>
			</g>
			<g transform="translate(12 8)">
				<rect x="516.55" y="499.27" width="27.817" height="27.818" fill="#888A85"/>
			</g>
			<g transform="translate(12 10)">
				<rect x="516.55" y="552.91" width="27.817" height="27.818" fill="#888A85"/>
			</g>
			<g transform="translate(0 12)">
				<rect x="194.73" y="606.55" width="27.818" height="27.817" fill="#888A85"/>
			</g>
			<g transform="translate(2 12)">
				<rect x="248.36" y="606.55" width="27.818" height="27.817" fill="#888A85"/>
			</g>
			<g transform="translate(4 12)">
				<rect x="302" y="606.55" width="27.818" height="27.817" fill="#888A85"/>
			</g>
			<g transform="translate(6 12)">
				<rect x="355.64" y="606.55" width="27.817" height="27.817" fill="#888A85"/>
			</g>
			<g transform="translate(8 12)">
				<rect x="409.27" y="606.55" width="27.818" height="27.817" fill="#888A85"/>
			</g>
			<g transform="translate(10 12)">
				<rect x="462.91" y="606.55" width="27.818" height="27.817" fill="#888A85"/>
			</g>
			<g transform="translate(12 12)">
				<rect x="516.55" y="606.55" width="27.817" height="27.817" fill="#888A85"/>
			</g>
	<g transform="matrix(6.1232e-17 1 -1 6.1232e-17 18 0)">
		<path d="m507.27-65.455v-333.82h-333.82v333.82h333.82zm-27.818-306h-278.18v278.18h278.18v-278.18z" fill="#888A85"/>
			<linearGradient id="b" x1="792.5" x2="793.5" y1="17.502" y2="17.502" gradientTransform="matrix(0 -278.18 -278.18 0 5069.9 2.2023e5)" gradientUnits="userSpaceOnUse">
			<stop stop-color="#F89797" offset="0"/>
			<stop stop-color="#F35B5B" offset="1"/>
		</linearGradient>
			<rect transform="matrix(2.5789e-6 1 -1 2.5789e-6 108 -572.73)" x="201.27" y="-371.45" width="278.18" height="278.18" fill="url(#b)"/>
	</g>
	<g transform="matrix(2.4493e-17 .4 -.4 2.4493e-17 18.6 11.4)">
		<path d="m1448.3-788.05v-417.27h-417.27v417.27h417.27zm-69.546-347.73h-278.18v278.18h278.18v-278.18z" fill="#888A85"/>
			<linearGradient id="a" x1="1952.7" x2="1953.7" y1="45.262" y2="45.262" gradientTransform="matrix(0 -111.27 -111.27 0 6136.9 2.1629e5)" gradientUnits="userSpaceOnUse">
			<stop stop-color="#F79D9D" offset="0"/>
			<stop stop-color="#F35E5D" offset="1"/>
		</linearGradient>
			<rect transform="matrix(2.5789e-6 1 -1 2.5789e-6 243 -2236.4)" x="1100.6" y="-1135.8" width="278.18" height="278.18" fill="url(#a)"/>
	</g>
		<rect x="194.73" y="284.73" width="27.818" height="27.818" fill="#888A85"/>
		<g transform="translate(0 2)">
			<rect x="194.73" y="338.36" width="27.818" height="27.818" fill="#888A85"/>
		</g>
		<g transform="translate(0 4)">
			<rect x="194.73" y="392" width="27.818" height="27.818" fill="#888A85"/>
		</g>
		<g transform="translate(0 6)">
			<rect x="194.73" y="445.64" width="27.818" height="27.817" fill="#888A85"/>
		</g>
		<g transform="translate(2)">
			<rect x="248.36" y="284.73" width="27.818" height="27.818" fill="#888A85"/>
		</g>
		<g transform="translate(4)">
			<rect x="302" y="284.73" width="27.818" height="27.818" fill="#888A85"/>
		</g>
		<g transform="translate(6)">
			<rect x="355.64" y="284.73" width="27.817" height="27.818" fill="#888A85"/>
		</g>
		<g transform="translate(5)">
			<rect x="328.82" y="284.73" width="27.818" height="27.818" fill="#fff"/>
		</g>
		<g transform="translate(3)">
			<rect x="275.18" y="284.73" width="27.818" height="27.818" fill="#fff"/>
		</g>
		<g transform="translate(1)">
			<rect x="221.54" y="284.73" width="27.818" height="27.818" fill="#fff"/>
		</g>
		<g transform="translate(0 1)">
			<rect x="194.73" y="311.54" width="27.818" height="27.818" fill="#fff"/>
		</g>
		<g transform="translate(0 3)">
			<rect x="194.73" y="365.18" width="27.818" height="27.818" fill="#fff"/>
		</g>
		<g transform="translate(0 5)">
			<rect x="194.73" y="418.82" width="27.818" height="27.818" fill="#fff"/>
		</g>
		<g transform="translate(7)">
			<rect x="382.45" y="284.73" width="27.818" height="27.818" fill="#fff"/>
		</g>
		<g transform="translate(0 7)">
			<rect x="194.73" y="472.46" width="27.818" height="27.817" fill="#fff"/>
		</g>
</svg>
