<svg xmlns="http://www.w3.org/2000/svg" width="44.8" height="51.2" version="1.1" viewBox="0 0 44.8 51.2"><metadata/><path d="m29.722 24.32c0 1.5616-1.152 2.8416-2.6112 2.8416-1.4336 0-2.6112-1.28-2.6112-2.8416s1.152-2.8416 2.6112-2.8416 2.6112 1.28 2.6112 2.8416zm-11.955-2.8416c-1.4592 0-2.6112 1.28-2.6112 2.8416s1.1776 2.8416 2.6112 2.8416c1.4592 0 2.6112-1.28 2.6112-2.8416 0.0256-1.5616-1.152-2.8416-2.6112-2.8416zm27.034-16.205v45.926c-6.4494-5.6994-4.3868-3.8128-11.878-10.778l1.3568 4.736h-29.03c-2.8928 0-5.248-2.3552-5.248-5.2736v-34.611c0-2.9184 2.3552-5.2736 5.248-5.2736h34.304c2.8928 0 5.248 2.3552 5.248 5.2736zm-7.296 24.269c0-8.2432-3.6864-14.925-3.6864-14.925-3.6864-2.7648-7.1936-2.688-7.1936-2.688l-0.3584 0.4096c4.352 1.3312 6.3744 3.2512 6.3744 3.2512-6.0811-3.3329-13.224-3.3335-19.123-0.7424-0.9472 0.4352-1.5104 0.7424-1.5104 0.7424s2.1248-2.0224 6.7328-3.3536l-0.256-0.3072s-3.5072-0.0768-7.1936 2.688c0 0-3.6864 6.6816-3.6864 14.925 0 0 2.1504 3.712 7.808 3.8912 0 0 0.9472-1.152 1.7152-2.1248-3.2512-0.9728-4.48-3.0208-4.48-3.0208 0.3766 0.2636 0.9976 0.6053 1.0496 0.64 4.321 2.4198 10.459 3.2126 15.974 0.896 0.896-0.3328 1.8944-0.8192 2.944-1.5104 0 0-1.28 2.0992-4.6336 3.0464 0.768 0.9728 1.6896 2.0736 1.6896 2.0736 5.6576-0.1792 7.8336-3.8912 7.8336-3.8912z"/></svg>