<svg xmlns="http://www.w3.org/2000/svg" xmlns:xlink="http://www.w3.org/1999/xlink" id="Layer_1" x="0" y="0" version="1.0" viewBox="0 0 311.04 108.79" style="enable-background:new 0 0 311.04 108.79" xml:space="preserve"><style type="text/css">.st0{fill:#ff8001}.st1{fill:#ff6601}.st2{fill:#ffb301}.st3{fill:#0b0146}.st4{fill:#ffcc01}.st5{fill:#ff9901}</style><g><path d="M63.02,42.75L63.02,42.75c-1.93-1.62-2.18-4.51-0.56-6.44l29.1-34.68C93.18-0.3,96.07-0.55,98,1.07l0,0 c1.83,1.54,2.07,4.3,0.54,6.13L69.16,42.21C67.61,44.05,64.85,44.29,63.02,42.75z" class="st0"/><path d="M53.69,40.84L53.69,40.84c-2.44,0.89-5.17-0.38-6.06-2.83l-4.94-13.57c-0.89-2.44,0.38-5.17,2.83-6.06l0,0 c2.17-0.79,4.59,0.34,5.38,2.51l5.3,14.57C56.99,37.63,55.86,40.05,53.69,40.84z" class="st1"/><path d="M64.89,57.4L64.89,57.4c2.36-0.86,5,0.37,5.86,2.73l15.48,42.54c0.86,2.36-0.37,5-2.73,5.86l0,0 c-2.25,0.82-4.76-0.35-5.58-2.6L62.29,62.98C61.47,60.73,62.64,58.22,64.89,57.4z" class="st2"/><path d="M57.33,61.42L57.33,61.42c1.99,1.67,2.25,4.67,0.58,6.66l-9.28,11.06c-1.67,1.99-4.67,2.25-6.66,0.58l0,0 c-1.77-1.48-2-4.14-0.52-5.91l9.97-11.88C52.9,60.17,55.56,59.94,57.33,61.42z" class="st3"/><path d="M53.66,52.53L53.66,52.53c-0.44,2.48-2.82,4.14-5.3,3.71L3.78,48.38c-2.48-0.44-4.14-2.82-3.71-5.3l0,0 c0.42-2.36,2.68-3.94,5.04-3.53l45.01,7.94C52.49,47.91,54.08,50.17,53.66,52.53z" class="st4"/><path d="M94.53,51.43L94.53,51.43c-0.45,2.56-2.92,4.29-5.48,3.83l-14.22-2.51c-2.56-0.45-4.29-2.92-3.83-5.48l0,0 c0.4-2.27,2.59-3.8,4.86-3.4l15.27,2.69C93.4,46.97,94.93,49.16,94.53,51.43z" class="st5"/><g><path d="M109.66,68.78v-2.17c3.25,1.01,6.84,1.52,10.76,1.52c6.35,0,9.52-2.53,9.52-7.59c0-3.47-2.11-5.21-6.33-5.21 h-6.81c-5.77,0-8.65-2.53-8.65-7.59c0-6.07,4.16-9.11,12.47-9.11c3.47,0,6.83,0.43,10.09,1.3v1.95c-3.25-0.87-6.61-1.3-10.09-1.3 c-6.8,0-10.19,2.39-10.19,7.16c0,3.62,2.13,5.42,6.38,5.42h6.81c5.74,0,8.61,2.46,8.61,7.37c0,6.36-3.93,9.54-11.8,9.54 C116.5,70.08,112.91,69.65,109.66,68.78z" class="st3"/><path d="M137.2,54.4c0-10.51,5.19-15.77,15.57-15.77c10.22,0,15.33,5.26,15.33,15.77c0,10.45-5.11,15.68-15.33,15.68 C142.4,70.08,137.2,64.85,137.2,54.4z M152.78,68.13c8.56,0,12.84-4.62,12.84-13.86c0-9.12-4.28-13.69-12.84-13.69 c-8.72,0-13.08,4.56-13.08,13.69C139.7,63.51,144.06,68.13,152.78,68.13z" class="st3"/><path d="M175.81,38.85v29.06h17.96v1.95h-20.24V38.84L175.81,38.85L175.81,38.85z" class="st3"/><path d="M196.48,69.86l14.03-31.02h2.71l14.1,31.02h-2.71l-4.55-10.41h-13.19l0.67-1.95h11.65l-7.46-16.87 l-12.82,29.24L196.48,69.86L196.48,69.86z" class="st3"/><path d="M231.12,69.86V38.84h12.8c5.61,0,8.42,2.48,8.42,7.44c0,4.29-3.04,7.34-9.13,9.13l10.48,14.44h-3.12 l-10.3-14.38v-1.54c6.36-0.94,9.54-3.43,9.54-7.48c0-3.73-2.08-5.6-6.25-5.6h-10.15v29h-2.29V69.86z" class="st3"/><path d="M256.39,69.86v-4.34c10.34-7.19,15.51-13.11,15.51-17.79c0-2.75-1.88-4.12-5.64-4.12c-3.18,0-6.18,0.8-9,2.39 v-5.21c2.82-1.45,5.82-2.17,9-2.17c7.59,0,11.39,3.04,11.39,9.11c0,5.35-4.14,11.06-12.43,17.13h12.43v4.99h-21.26V69.86z" class="st1"/><path d="M283.06,69.86V38.84h13.45c9.69,0,14.53,4.89,14.53,14.66c0,10.9-4.84,16.35-14.53,16.35L283.06,69.86 L283.06,69.86z M295.64,64.87c6.43,0,9.65-3.79,9.65-11.37c0-6.45-3.22-9.67-9.65-9.67h-6.83v21.04H295.64z" class="st1"/></g></g></svg>