<svg xmlns="http://www.w3.org/2000/svg" width="51.2" height="51.2" version="1.1" viewBox="0 0 51.2 51.2"><metadata/><path d="m45.937 15.218c0.0325 0.4548 0.0325 0.9097 0.0325 1.3645 0 13.872-10.558 29.856-29.856 29.856-5.9452 0-11.468-1.7219-16.114-4.7106 0.8447 0.0974 1.6568 0.1299 2.534 0.1299 4.9055 0 9.4213-1.6568 13.027-4.4832-4.6132-0.0975-8.4792-3.1188-9.8112-7.2772 0.6498 0.0974 1.2995 0.1624 1.9818 0.1624 0.9421 0 1.8843-0.13 2.7614-0.3573-4.8081-0.9747-8.4143-5.198-8.4143-10.298v-0.1299c1.3969 0.7797 3.0214 1.267 4.7431 1.3319-2.8264-1.8843-4.6781-5.1005-4.6781-8.7391 0-1.9492 0.5197-3.736 1.4294-5.2954 5.1655 6.3675 12.93 10.526 21.636 10.981-0.1624-0.7797-0.2599-1.5918-0.2599-2.404 0-5.7828 4.6782-10.493 10.493-10.493 3.0213 0 5.7502 1.267 7.667 3.3137 2.3715-0.4548 4.6456-1.332 6.6599-2.534-0.7798 2.4366-2.4366 4.4833-4.6132 5.7827 2.1117-0.2273 4.1584-0.8122 6.0426-1.6243-1.4292 2.0791-3.2161 3.9308-5.2628 5.4253z"/></svg>