<svg xmlns="http://www.w3.org/2000/svg" xmlns:svg="http://www.w3.org/2000/svg" id="svg5" width="353" height="189" version="1.1" viewBox="0 0 93.398 50.006"><g id="layer1"><rect style="fill:#feffff;fill-opacity:1;fill-rule:evenodd;stroke-width:.264477" id="rect42" width="93.398" height="50.006" x="0" y="0"/><g style="fill:none" id="g18" transform="matrix(0.7073437,0,0,0.7073437,7.7950549,8.6417347)"><path id="path9" fill="#0c1250" fill-rule="evenodd" d="M 0,0 H 93.5514 V 2.05607 H 0 Z m 29.9689,17.2296 c 1.2885,0.9047 1.9327,2.4536 1.9327,4.6467 v 3.9477 c 0,3.6187 -1.6997,5.428 -5.099,5.428 h -4.8524 c -3.3994,0 -5.0991,-1.8093 -5.0991,-5.428 v -2.1794 h 5.1402 v 2.4261 c 0,0.2193 0.0686,0.4112 0.2056,0.5757 0.1645,0.1645 0.3564,0.2468 0.5757,0.2468 h 3.2486 c 0.2194,0 0.3976,-0.0823 0.5346,-0.2468 0.1645,-0.1645 0.2468,-0.3564 0.2468,-0.5757 V 20.396 c 0,-0.2193 -0.0823,-0.4112 -0.2468,-0.5757 -0.137,-0.1645 -0.3152,-0.2468 -0.5346,-0.2468 h -4.2355 v -4.4411 h 3.9888 c 0.2193,0 0.3975,-0.0822 0.5346,-0.2467 0.1645,-0.1645 0.2467,-0.3564 0.2467,-0.5757 V 9.12868 c 0,-0.21932 -0.0822,-0.41122 -0.2467,-0.57571 C 26.172,8.38849 25.9938,8.30625 25.7745,8.30625 h -2.7551 c -0.2193,0 -0.4112,0.08224 -0.5757,0.24672 -0.1371,0.16449 -0.2056,0.35639 -0.2056,0.57571 V 11.7605 H 17.0979 V 9.25204 c 0,-3.61869 1.6997,-5.42803 5.099,-5.42803 h 4.3589 c 3.3994,0 5.0991,1.80934 5.0991,5.42803 v 3.53646 c 0,2.1383 -0.562,3.6187 -1.686,4.4411 z M 13.2823,4.27634 V 30.8819 H 7.68973 V 4.27634 Z M 39.7179,20.3548 h 2.0561 c 1.0966,0 2.0149,-0.1781 2.7551,-0.5345 v 6.1271 c 0,0.2193 -0.0822,0.4112 -0.2467,0.5757 -0.1371,0.1645 -0.3153,0.2467 -0.5346,0.2467 h -2.6729 c -0.2193,0 -0.4112,-0.0822 -0.5757,-0.2467 -0.1371,-0.1645 -0.2056,-0.3564 -0.2056,-0.5757 v -2.0972 h -5.2635 v 1.9738 c 0,3.6187 1.6997,5.428 5.099,5.428 h 4.4411 c 3.3994,0 5.0991,-1.8093 5.0991,-5.428 V 9.25204 c 0,-3.61869 -1.6997,-5.42803 -5.0991,-5.42803 h -4.8523 c -3.3994,0 -5.0991,1.80934 -5.0991,5.42803 v 5.67476 c 0,3.6187 1.6997,5.428 5.0991,5.428 z m 0,-5.8803 V 9.70438 c 0,-0.21932 0.0685,-0.41122 0.2056,-0.5757 0.1645,-0.16449 0.3564,-0.24673 0.5757,-0.24673 h 3.2486 c 0.2193,0 0.3975,0.08224 0.5346,0.24673 0.1645,0.16448 0.2467,0.35638 0.2467,0.5757 v 4.77012 c 0,0.2193 -0.0822,0.4112 -0.2467,0.5757 -0.1371,0.1645 -0.3153,0.2467 -0.5346,0.2467 h -3.2486 c -0.2193,0 -0.4112,-0.0822 -0.5757,-0.2467 -0.1371,-0.1645 -0.2056,-0.3564 -0.2056,-0.5757 z M 62.7492,4.23522 h 5.1401 V 30.8408 h -5.1401 v -10.486 h -4.8113 c -3.3993,0 -5.099,-1.8093 -5.099,-5.428 V 4.23522 h 5.099 V 14.6801 c 0,0.2193 0.0686,0.4112 0.2057,0.5757 0.1644,0.1645 0.3563,0.2467 0.5756,0.2467 h 3.2486 c 0.2194,0 0.3976,-0.0822 0.5346,-0.2467 0.1645,-0.1645 0.2468,-0.3564 0.2468,-0.5757 z m 6.9,0 V 9.12868 H 73.967 V 30.8408 h 5.757 V 9.12868 h 4.3177 V 4.23522 Z M 96.4174,3.82401 c 3.3994,0 5.0986,1.80934 5.0986,5.42803 V 30.8408 h -5.7566 v -8.9233 h -4.1532 v 8.9233 h -5.757 V 9.25204 c 0,-3.61869 1.6997,-5.42803 5.099,-5.42803 z M 91.6062,17.4763 h 4.1532 V 8.55297 c 0,-0.21931 -0.0822,-0.41121 -0.2467,-0.5757 C 95.3756,7.81279 95.1974,7.73055 94.9781,7.73055 h -2.5906 c -0.2193,0 -0.4112,0.08224 -0.5757,0.24672 -0.1371,0.16449 -0.2056,0.35639 -0.2056,0.5757 z M 7.19623,32.897 H 54.4859 v 2.0561 8.6355 L 62.7102,32.897 H 62.7103 110 v 2.0561 H 68.3249 l -8.6988,11.3084 h -5.1402 -2.056 V 34.9531 H 7.19623 Z" clip-rule="evenodd"/></g></g></svg>