<?xml version="1.0" encoding="UTF-8"?>
<svg width="353" height="189" data-name="Layer 1" version="1.1" viewBox="0 0 353 189" xmlns="http://www.w3.org/2000/svg" xmlns:cc="http://creativecommons.org/ns#" xmlns:dc="http://purl.org/dc/elements/1.1/" xmlns:rdf="http://www.w3.org/1999/02/22-rdf-syntax-ns#">
 <metadata>
  <rdf:RDF>
   <cc:Work rdf:about="">
    <dc:format>image/svg+xml</dc:format>
    <dc:type rdf:resource="http://purl.org/dc/dcmitype/StillImage"/>
    <dc:title>FN_170x60px</dc:title>
   </cc:Work>
  </rdf:RDF>
 </metadata>
 <defs>
  <style>.cls-1{fill:none;}.cls-2{fill:#191818;}.cls-3{fill:#3557a5;}.cls-4{fill:#243b7c;}.cls-5{fill:#fff;}.cls-6{fill:#f1f1f2;}.cls-7{clip-path:url(#clip-path);}</style>
  <clipPath id="clip-path">
   <path class="cls-1" d="m8.88 39.71 9.12 5.29a5 5 0 0 0 5 0l9-5.29a5 5 0 0 0 2.48-4.3v-10.5a5 5 0 0 0-2.48-4.3l-9.09-5.25a5 5 0 0 0-5 0l-9.03 5.25a5 5 0 0 0-2.49 4.3v10.5a5 5 0 0 0 2.49 4.3z"/>
  </clipPath>
 </defs>
 <title>FN_170x60px</title>
 <g transform="matrix(1.9296 0 0 1.9296 -146.31 36.641)">
  <path d="m226.3 46.42 0.13-1h1l-0.13 1z"/>
  <path d="m231.67 45.56a6.36 6.36 0 0 0 1-0.05 1.66 1.66 0 0 0 0.56-0.15 0.59 0.59 0 0 0 0.27-0.27 2.09 2.09 0 0 0 0.12-0.4h1.14a4.56 4.56 0 0 1-0.12 0.58 1.55 1.55 0 0 1-0.21 0.45 1.13 1.13 0 0 1-0.34 0.35 1.9 1.9 0 0 1-0.55 0.23 5 5 0 0 1-0.82 0.13h-1.15a12.86 12.86 0 0 1-1.38-0.07 2.7 2.7 0 0 1-0.86-0.24 0.93 0.93 0 0 1-0.44-0.46 1.69 1.69 0 0 1-0.13-0.72v-0.46c0-0.17 0-0.35 0.07-0.54s0.1-0.63 0.16-0.88a2.68 2.68 0 0 1 0.24-0.66 1.57 1.57 0 0 1 0.39-0.46 1.71 1.71 0 0 1 0.59-0.29 4.36 4.36 0 0 1 0.85-0.15h1.2a10.45 10.45 0 0 1 1.39 0.07 2.42 2.42 0 0 1 0.83 0.21 0.79 0.79 0 0 1 0.41 0.37 1.27 1.27 0 0 1 0.1 0.54 1.85 1.85 0 0 1 0 0.23v0.26h-1.14a1.3 1.3 0 0 0 0-0.35 0.37 0.37 0 0 0-0.2-0.23 1.55 1.55 0 0 0-0.52-0.13 8.06 8.06 0 0 0-1 0 7.45 7.45 0 0 0-1.07 0.06 1.24 1.24 0 0 0-0.59 0.23 0.88 0.88 0 0 0-0.27 0.47c0 0.21-0.1 0.47-0.15 0.8v0.44a2.24 2.24 0 0 0 0 0.34 0.92 0.92 0 0 0 0.08 0.4 0.51 0.51 0 0 0 0.26 0.24 1.6 1.6 0 0 0 0.53 0.12c0.12-0.02 0.38-0.01 0.75-0.01z"/>
  <path d="m239.18 46.48q-0.88 0-1.47-0.06a3.14 3.14 0 0 1-0.91-0.21 0.93 0.93 0 0 1-0.47-0.42 1.8 1.8 0 0 1-0.13-0.71 4.42 4.42 0 0 1 0-0.49c0-0.18 0-0.37 0.07-0.59s0.1-0.65 0.16-0.9a2.76 2.76 0 0 1 0.24-0.67 1.3 1.3 0 0 1 0.38-0.46 1.82 1.82 0 0 1 0.61-0.28 4.92 4.92 0 0 1 0.91-0.15h1.28a14.49 14.49 0 0 1 1.46 0.06 3 3 0 0 1 0.91 0.22 1 1 0 0 1 0.47 0.44 1.69 1.69 0 0 1 0.13 0.72v0.49c0 0.18 0 0.36-0.07 0.57s-0.11 0.65-0.17 0.9a2.4 2.4 0 0 1-0.23 0.67 1.58 1.58 0 0 1-0.4 0.45 1.82 1.82 0 0 1-0.61 0.28 5 5 0 0 1-0.9 0.14c-0.34-0.01-0.77 0-1.26 0zm0.13-0.9a7.43 7.43 0 0 0 1.05-0.06 1.61 1.61 0 0 0 0.64-0.2 0.78 0.78 0 0 0 0.34-0.38 2.33 2.33 0 0 0 0.16-0.6c0-0.2 0.05-0.37 0.07-0.5s0-0.24 0-0.31a1.59 1.59 0 0 1 0-0.17v-0.1a0.8 0.8 0 0 0-0.09-0.41 0.52 0.52 0 0 0-0.3-0.26 1.82 1.82 0 0 0-0.57-0.14h-0.92a7.74 7.74 0 0 0-1.07 0.06 1.87 1.87 0 0 0-0.64 0.19 0.72 0.72 0 0 0-0.33 0.38 2.19 2.19 0 0 0-0.15 0.6c0 0.21-0.06 0.39-0.07 0.52s0 0.23 0 0.31v0.16a0.38 0.38 0 0 0 0 0.1 0.83 0.83 0 0 0 0.09 0.41 0.58 0.58 0 0 0 0.29 0.26 2.24 2.24 0 0 0 0.58 0.14c0.23-0.02 0.54 0 0.91 0z"/>
  <path d="m250.52 46.42 0.31-2.21c0-0.18 0.05-0.35 0.07-0.5s0-0.28 0.06-0.41 0-0.23 0.05-0.34 0-0.2 0-0.3l-0.4 0.57-0.55 0.74-1.76 2.45h-1.17l-1-2.42-0.16-0.38c-0.05-0.11-0.1-0.22-0.14-0.33s-0.09-0.2-0.13-0.3l-0.12-0.33v0.36c0 0.11 0 0.23-0.05 0.35s0 0.24 0 0.38 0 0.29-0.06 0.47l-0.31 2.2h-1.11l0.67-4.85h1.58l1.62 3.84 2.77-3.84h1.61l-0.67 4.85z"/>
  <path d="m135.82 46.42-2.17-2.58-0.59-0.7-0.46-0.58v0.37 0.39c0 0.14 0 0.28-0.06 0.44s0 0.35-0.07 0.56l-0.3 2.1h-1.19l0.67-4.85h1.58l2 2.41 0.37 0.45 0.28 0.34 0.23 0.28 0.18 0.24 0.01-0.29v-0.33a4.22 4.22 0 0 1 0.06-0.42c0-0.16 0-0.36 0.08-0.58l0.29-2.12h1.15l-0.68 4.85z"/>
  <path d="m138.84 46.42 0.67-4.85h5.16l-0.14 1h-4l-0.11 0.85h3.88l-0.13 0.91h-3.87l-0.16 1.11h4.05l-0.13 1z"/>
  <path d="m147.3 46.42 0.54-3.88h-2.05l0.14-1h5.3l-0.13 1h-2.06l-0.54 3.88z"/>
  <path d="m153.62 46.42 0.54-3.88h-2.06l0.14-1h5.3l-0.13 1h-2l-0.55 3.88z"/>
  <path d="m158.22 46.42 0.68-4.85h1.2l-0.68 4.85z"/>
  <path d="m164.57 45.56a6.44 6.44 0 0 0 1-0.05 1.59 1.59 0 0 0 0.55-0.15 0.59 0.59 0 0 0 0.27-0.27 3.14 3.14 0 0 0 0.13-0.4h1.14c0 0.21-0.08 0.4-0.13 0.58a1.86 1.86 0 0 1-0.2 0.45 1.17 1.17 0 0 1-0.35 0.35 1.9 1.9 0 0 1-0.55 0.23 4.91 4.91 0 0 1-0.81 0.13h-1.15a12.57 12.57 0 0 1-1.38-0.07 2.62 2.62 0 0 1-0.86-0.24 1 1 0 0 1-0.45-0.46 1.87 1.87 0 0 1-0.12-0.72 3.78 3.78 0 0 1 0-0.46c0-0.17 0-0.35 0.06-0.54s0.1-0.63 0.16-0.88a2.33 2.33 0 0 1 0.25-0.66 1.7 1.7 0 0 1 0.37-0.4 1.81 1.81 0 0 1 0.59-0.29 4.47 4.47 0 0 1 0.86-0.15h1.19a10.62 10.62 0 0 1 1.4 0.07 2.56 2.56 0 0 1 0.83 0.21 0.77 0.77 0 0 1 0.4 0.37 1.27 1.27 0 0 1 0.1 0.54 1.85 1.85 0 0 1 0 0.23 2.28 2.28 0 0 1 0 0.26h-1.17a1 1 0 0 0 0-0.35 0.34 0.34 0 0 0-0.2-0.23 1.55 1.55 0 0 0-0.51-0.13 8.06 8.06 0 0 0-1 0 7.51 7.51 0 0 0-1.08 0.06 1.2 1.2 0 0 0-0.58 0.23 0.83 0.83 0 0 0-0.28 0.47c0 0.21-0.1 0.47-0.15 0.8 0 0.16 0 0.31-0.05 0.44a2.12 2.12 0 0 0 0 0.34 0.93 0.93 0 0 0 0.07 0.4 0.56 0.56 0 0 0 0.26 0.24 1.66 1.66 0 0 0 0.53 0.12c0.22-0.08 0.51-0.07 0.86-0.07z"/>
  <path d="m173.84 45.42h-3.22l-0.68 1h-1.27l3.34-4.85h1.53l1.92 4.85h-1.23zm-0.34-0.88c-0.14-0.36-0.26-0.66-0.35-0.91l-0.23-0.6c-0.06-0.16-0.11-0.3-0.14-0.41s-0.07-0.21-0.1-0.3l-0.19 0.31-0.26 0.4c-0.11 0.17-0.24 0.37-0.41 0.61l-0.61 0.9z"/>
  <path d="m182.81 42.38a1.66 1.66 0 0 1 0 0.32 1.83 1.83 0 0 1-0.07 0.32h-1.15v-0.12a0.81 0.81 0 0 0 0-0.16 0.25 0.25 0 0 0 0-0.15 0.34 0.34 0 0 0-0.2-0.11 3.39 3.39 0 0 0-0.44 0h-0.74-0.73a3 3 0 0 0-0.49 0 1.37 1.37 0 0 0-0.31 0.08 0.52 0.52 0 0 0-0.18 0.13 0.75 0.75 0 0 0-0.08 0.18 1.49 1.49 0 0 0 0 0.21 0.29 0.29 0 0 0 0 0.14 0.17 0.17 0 0 0 0.09 0.1 0.91 0.91 0 0 0 0.17 0.08h0.28c0.16 0 0.36 0.05 0.61 0.07h0.79a9.72 9.72 0 0 1 1.07 0.07 2.47 2.47 0 0 1 0.69 0.17 0.68 0.68 0 0 1 0.37 0.31 0.89 0.89 0 0 1 0.11 0.49 3.6 3.6 0 0 1 0 0.56 2 2 0 0 1-0.19 0.54 1.41 1.41 0 0 1-0.34 0.39 1.75 1.75 0 0 1-0.55 0.24 4 4 0 0 1-0.79 0.12h-1.09-1.35a3.51 3.51 0 0 1-0.84-0.17 0.74 0.74 0 0 1-0.56-0.78 2.55 2.55 0 0 1 0.08-0.61h1.16v0.14a0.81 0.81 0 0 0 0 0.16 0.32 0.32 0 0 0 0.06 0.2 0.48 0.48 0 0 0 0.25 0.13 2.72 2.72 0 0 0 0.5 0.06h1.54a2.94 2.94 0 0 0 0.47 0 0.9 0.9 0 0 0 0.29-0.09 0.29 0.29 0 0 0 0.15-0.14 0.48 0.48 0 0 0 0.07-0.2 1.5 1.5 0 0 0 0-0.22 0.29 0.29 0 0 0 0-0.16 0.27 0.27 0 0 0-0.14-0.11 1.45 1.45 0 0 0-0.29-0.06 4 4 0 0 0-0.46 0h-0.96l-0.63-0.05a4.91 4.91 0 0 1-0.67-0.08 1.38 1.38 0 0 1-0.73-0.33 0.92 0.92 0 0 1-0.27-0.73 3.5 3.5 0 0 1 0-0.54 1.81 1.81 0 0 1 0.2-0.52 1 1 0 0 1 0.33-0.34 2 2 0 0 1 0.55-0.22 5.45 5.45 0 0 1 0.82-0.11h1.15 1.21a3.83 3.83 0 0 1 0.77 0.14 0.78 0.78 0 0 1 0.4 0.27 0.76 0.76 0 0 1 0.07 0.38z"/>
  <path d="m183.91 46.42 0.68-4.85h1.2l-0.68 4.85z"/>
  <path d="m191.58 46.42-2.17-2.58-0.58-0.7c-0.16-0.2-0.32-0.39-0.46-0.58v0.37 0.39c0 0.14 0 0.28-0.06 0.44s-0.05 0.35-0.08 0.56l-0.29 2.1h-1.11l0.67-4.85h1.58l2 2.41 0.37 0.45 0.28 0.34 0.22 0.28 0.19 0.24a1.24 1.24 0 0 1 0-0.27v-0.33-0.42c0-0.16 0-0.36 0.08-0.58l0.3-2.12h1.14l-0.67 4.85z"/>
  <path d="m197.73 46.48a14.49 14.49 0 0 1-1.46-0.06 3.13 3.13 0 0 1-0.92-0.21 0.87 0.87 0 0 1-0.46-0.42 1.64 1.64 0 0 1-0.13-0.71 4.42 4.42 0 0 1 0-0.49c0-0.18 0-0.37 0.07-0.59s0.1-0.65 0.15-0.9a2.76 2.76 0 0 1 0.24-0.67 1.56 1.56 0 0 1 0.38-0.46 1.87 1.87 0 0 1 0.62-0.28 4.92 4.92 0 0 1 0.91-0.15h1.27a14.49 14.49 0 0 1 1.46 0.06 3.1 3.1 0 0 1 0.92 0.22 1 1 0 0 1 0.47 0.44 1.85 1.85 0 0 1 0.13 0.72 4.42 4.42 0 0 1 0 0.49c0 0.17 0 0.36-0.07 0.57s-0.1 0.65-0.16 0.9a2.76 2.76 0 0 1-0.24 0.67 1.41 1.41 0 0 1-0.39 0.45 1.82 1.82 0 0 1-0.61 0.28 5 5 0 0 1-0.91 0.14c-0.35-0.01-0.77 0-1.27 0zm0.13-0.9a7.59 7.59 0 0 0 1.06-0.06 1.67 1.67 0 0 0 0.64-0.2 0.81 0.81 0 0 0 0.33-0.38 2 2 0 0 0 0.16-0.6c0-0.2 0-0.37 0.07-0.5s0-0.24 0-0.31v-0.17-0.1a0.81 0.81 0 0 0-0.08-0.41 0.6 0.6 0 0 0-0.3-0.26 1.82 1.82 0 0 0-0.58-0.14h-0.91a7.64 7.64 0 0 0-1.07 0.06 1.8 1.8 0 0 0-0.64 0.19 0.78 0.78 0 0 0-0.24 0.3 3.27 3.27 0 0 0-0.15 0.6c0 0.21 0 0.39-0.07 0.52s0 0.23 0 0.31v0.16 0.1a1 1 0 0 0 0.08 0.41 0.6 0.6 0 0 0 0.3 0.26 2.15 2.15 0 0 0 0.57 0.14c0.14 0.06 0.45 0.08 0.83 0.08z"/>
  <path d="m207.85 46.42 0.28-2h-3.74l-0.28 2h-1.21l0.67-4.85h1.21l-0.26 1.87h3.78l0.26-1.87h1.21l-0.67 4.85z"/>
  <path d="m210.68 46.42 0.67-4.85h5.16l-0.14 1h-4l-0.12 0.85h3.95l-0.13 0.91h-3.97l-0.15 1.11h4l-0.13 1z"/>
  <path d="m222.45 46.42-1.65-1.86-2.15 1.86h-1.55l3.06-2.53-2.27-2.32h1.54l1.53 1.69 2.08-1.69h1.49l-2.87 2.34 2.3 2.51z"/>
  <path class="cls-2" d="m236.35 17.59 0.46-3.32h-1.76l0.11-0.82h4.55l-0.11 0.82h-1.76l-0.47 3.32zm9.73 0 0.22-1.89c0.09-0.63 0.14-1 0.19-1.32-0.19 0.29-0.44 0.62-0.81 1.12l-1.54 2.09h-1l-0.84-2.07c-0.21-0.48-0.33-0.75-0.48-1.14 0 0.44-0.08 0.73-0.17 1.33l-0.26 1.88h-1l0.58-4.14h1.42l1.39 3.28 2.38-3.28h1.4l-0.58 4.14z"/>
  <polygon class="cls-2" transform="translate(82.297)" points="57.92 22.36 75.41 22.36 76.63 13.68 82.28 13.68 79.13 36.25 73.48 36.25 74.78 26.73 57.29 26.73 55.98 36.25 50.33 36.25 53.49 13.68 59.14 13.68"/>
  <polygon class="cls-2" transform="translate(82.297)" points="110.06 26.53 91.59 26.53 90.88 31.7 109.8 31.7 109.17 36.25 84.96 36.25 88.11 13.68 112.21 13.68 111.55 18.32 92.75 18.32 92.22 22.27 110.69 22.27"/>
  <polygon class="cls-2" transform="translate(82.297)" points="132.4 21.43 142.19 13.53 149.19 13.53 135.66 24.49 146.5 36.25 139.4 36.25 131.65 27.51 121.53 36.25 114.22 36.25 128.62 24.4 117.93 13.53 125.18 13.53"/>
  <g id="_Group_" transform="translate(82.297)" data-name="&lt;Group&gt;">
   <path class="cls-3" d="m20.45 52.39a7.06 7.06 0 0 1-3.55-1l-13.23-7.59a7.15 7.15 0 0 1-3.56-6.16v-15.28a7.15 7.15 0 0 1 3.56-6.16l13.23-7.63a7.06 7.06 0 0 1 7.11 0l13.23 7.63a7.14 7.14 0 0 1 3.55 6.16v15.28a7.14 7.14 0 0 1-3.55 6.16l-13.24 7.63a7.07 7.07 0 0 1-3.55 0.96z"/>
   <path class="cls-4" d="m20.45 7.73a7 7 0 0 1 3.55 0.94l13.18 7.63a7 7 0 0 1 3.5 6.06v15.28a7 7 0 0 1-3.5 6.06l-13.18 7.63a7 7 0 0 1-7 0l-13.27-7.63a7 7 0 0 1-3.5-6.06v-15.28a7 7 0 0 1 3.5-6.06l13.27-7.63a7 7 0 0 1 3.5-0.94m0-0.23a7.19 7.19 0 0 0-3.61 1l-13.27 7.6a7.24 7.24 0 0 0-3.62 6.26v15.28a7.24 7.24 0 0 0 3.62 6.26l13.22 7.63a7.22 7.22 0 0 0 7.23 0l13.22-7.63a7.24 7.24 0 0 0 3.62-6.26v-15.28a7.24 7.24 0 0 0-3.62-6.26l-13.22-7.63a7.2 7.2 0 0 0-3.62-1z"/>
  </g>
  <path class="cls-5" d="m82.467 34.2v-8.28h1.05a1.14 1.14 0 0 1 1.14 1.14v6a1.14 1.14 0 0 1-1.14 1.14z"/>
  <path class="cls-4" d="m83.517 26a1.09 1.09 0 0 1 1.09 1.09v6a1.08 1.08 0 0 1-1.09 1.08h-1v-8.17h1m0-0.11h-1.1v8.4h1.1a1.2 1.2 0 0 0 1.2-1.2v-6a1.2 1.2 0 0 0-1.2-1.2z"/>
  <path class="cls-5" d="m89.867 16.43a1.15 1.15 0 0 1-1-0.56l-0.57-0.95 7.17-4.15 0.55 0.94a1.15 1.15 0 0 1 0.13 0.87 1.12 1.12 0 0 1-0.54 0.7l-5.19 3a1.16 1.16 0 0 1-0.57 0.15z"/>
  <path class="cls-4" d="m95.467 10.85 0.53 0.89a1.08 1.08 0 0 1-0.4 1.49l-5.19 3a1.06 1.06 0 0 1-0.54 0.14 1.08 1.08 0 0 1-0.94-0.53l-0.53-0.9 7.07-4.09m0-0.15-0.09 0.05-7.08 4.09-0.1 0.06 0.1 0.1 0.53 0.9a1.22 1.22 0 0 0 1 0.59 1.28 1.28 0 0 0 0.6-0.16l5.19-3a1.2 1.2 0 0 0 0.43-1.65l-0.52-0.89z"/>
  <path class="cls-5" d="m114.67 15.87a1.16 1.16 0 0 1-0.57-0.15l-5.19-3a1.12 1.12 0 0 1-0.54-0.7 1.15 1.15 0 0 1 0.13-0.87l0.55-0.93 7.17 4.14-0.56 1a1.15 1.15 0 0 1-1 0.56z"/>
  <path class="cls-4" d="m109.07 10.29 7.07 4.09-0.53 0.9a1.09 1.09 0 0 1-0.94 0.54 1.08 1.08 0 0 1-0.54-0.15l-5.19-3a1.08 1.08 0 0 1-0.4-1.49l0.53-0.89m0-0.15-0.06 0.09-0.52 0.89a1.2 1.2 0 0 0 0.43 1.65l5.19 3a1.28 1.28 0 0 0 0.6 0.16 1.22 1.22 0 0 0 1-0.59l0.53-0.9 0.06-0.1-0.1-0.06-7.08-4.09h-0.09z"/>
  <path class="cls-5" d="m121.99 34.2a1.14 1.14 0 0 1-1.14-1.14v-6a1.14 1.14 0 0 1 1.14-1.14h1v8.28z"/>
  <path class="cls-4" d="m122.98 26v8.17h-1a1.08 1.08 0 0 1-1.09-1.08v-6a1.09 1.09 0 0 1 1.1-1.09h1m0.11-0.11h-1.1a1.2 1.2 0 0 0-1.2 1.2v6a1.2 1.2 0 0 0 1.2 1.2h1.1z"/>
  <path class="cls-5" d="m88.407 45.13 0.51-0.86a1.14 1.14 0 0 1 1.55-0.41l5.2 3a1.14 1.14 0 0 1 0.53 0.7 1.1 1.1 0 0 1-0.12 0.87l-0.5 0.85z"/>
  <path class="cls-4" d="m89.897 43.76a1.11 1.11 0 0 1 0.55 0.15l5.19 3a1.08 1.08 0 0 1 0.39 1.49l-0.47 0.8-7.08-4.09 0.49-0.81a1.07 1.07 0 0 1 0.93-0.54m0-0.11a1.18 1.18 0 0 0-1 0.59l-0.48 0.82-0.12 0.09 0.1 0.06 7.1 4.09 0.1 0.05 0.06-0.09 0.47-0.8a1.23 1.23 0 0 0 0.13-0.92 1.18 1.18 0 0 0-0.56-0.73l-5.2-3a1.15 1.15 0 0 0-0.6-0.16z"/>
  <path class="cls-5" d="m108.46 49a1.11 1.11 0 0 1-0.12-0.87 1.14 1.14 0 0 1 0.53-0.7l5.2-3a1.12 1.12 0 0 1 1.55 0.41l0.51 0.86-7.17 4.15z"/>
  <path class="cls-4" d="m114.64 44.32a1.07 1.07 0 0 1 0.93 0.54l0.49 0.81-7.08 4.09-0.47-0.8a1.08 1.08 0 0 1 0.39-1.49l5.19-3a1.11 1.11 0 0 1 0.55-0.15m0-0.11a1.15 1.15 0 0 0-0.6 0.16l-5.2 3a1.18 1.18 0 0 0-0.56 0.73 1.24 1.24 0 0 0 0.13 0.92l0.47 0.8 0.06 0.09h0.1l7.07-4.09 0.1-0.06-0.06-0.1-0.48-0.81a1.18 1.18 0 0 0-1-0.59z"/>
  <g transform="translate(82.297)" data-name="&lt;Group&gt;">
   <path class="cls-4" d="m20.45 47.15h-0.61a0.12 0.12 0 0 1-0.1-0.13 0.11 0.11 0 0 1 0.13-0.1 5.87 5.87 0 0 0 1.11 0 0.12 0.12 0 0 1 0.13 0.1 0.11 0.11 0 0 1-0.11 0.12 4.93 4.93 0 0 1-0.55 0.01zm1.66-0.26a0.11 0.11 0 0 1 0-0.22 4.65 4.65 0 0 0 1-0.45 0.12 0.12 0 1 1 0.12 0.2 6 6 0 0 1-1.07 0.47zm-3.37 0a5.41 5.41 0 0 1-1-0.46 0.11 0.11 0 0 1 0-0.16 0.11 0.11 0 0 1 0.15 0 5.07 5.07 0 0 0 1 0.44 0.12 0.12 0 0 1 0.07 0.15 0.12 0.12 0 0 1-0.22 0.01zm5.4-1a0.11 0.11 0 0 1-0.06-0.21l1-0.57a0.11 0.11 0 0 1 0.15 0 0.11 0.11 0 0 1 0 0.16l-1 0.57zm-7.42 0h-0.06l-1-0.57a0.13 0.13 0 0 1 0-0.16 0.11 0.11 0 0 1 0.15 0l1 0.57a0.1 0.1 0 0 1 0 0.15 0.1 0.1 0 0 1-0.09-0.05zm9.39-1.11a0.11 0.11 0 0 1-0.09 0 0.11 0.11 0 0 1 0-0.16l1-0.57a0.12 0.12 0 0 1 0.16 0 0.13 0.13 0 0 1 0 0.16l-1 0.57zm-11.37 0h-0.06l-1-0.58a0.11236 0.11236 0 1 1 0.12-0.19l1 0.57a0.11 0.11 0 0 1 0 0.15 0.11 0.11 0 0 1-0.06-0.04zm13.35-1.11a0.11 0.11 0 0 1-0.1-0.06 0.11 0.11 0 0 1 0-0.15l1-0.57a0.11 0.11 0 0 1 0.16 0 0.13 0.13 0 0 1 0 0.16l-1 0.57zm-15.33 0-1-0.57a0.11 0.11 0 0 1 0.11-0.19l1 0.57a0.11 0.11 0 0 1 0 0.15 0.11 0.11 0 0 1-0.11-0.08zm17.31-1.11a0.11 0.11 0 0 1-0.1-0.06 0.1 0.1 0 0 1 0-0.15l1-0.57a0.11 0.11 0 0 1 0.11 0.19l-1 0.57s0.01-0.1-0.01-0.1zm-19.28 0h-0.06l-1-0.57a0.11 0.11 0 0 1 0-0.15 0.12 0.12 0 0 1 0.16-0.05l1 0.58a0.11 0.11 0 0 1 0.05 0.15 0.12 0.12 0 0 1-0.15-0.11zm21.21-1.26a0.12 0.12 0 0 1-0.1-0.06 0.11 0.11 0 0 1 0-0.15l1-0.57a0.11 0.11 0 0 1 0.16 0 0.11 0.11 0 0 1 0 0.15l-1 0.57zm-23.23 0h-0.06l-1-0.57-0.11-0.06a0.12 0.12 0 0 1 0-0.16 0.11 0.11 0 0 1 0.16 0h0.1l1 0.57a0.13 0.13 0 0 1 0 0.16 0.11 0.11 0 0 1-0.05 0.03zm25.23-1.23a0.11 0.11 0 0 1-0.08-0.2 5.36 5.36 0 0 0 0.76-0.82 0.11 0.11 0 0 1 0.16 0 0.11 0.11 0 0 1 0 0.16 5.28 5.28 0 0 1-0.84 0.79 0.09 0.09 0 0 1 0 0.07zm-27.18-0.07a0.11 0.11 0 0 1-0.08 0 6.31 6.31 0 0 1-0.74-1 0.11 0.11 0 0 1 0-0.16 0.11 0.11 0 0 1 0.16 0 5.24 5.24 0 0 0 0.72 0.84 0.11 0.11 0 0 1 0 0.16 0.09 0.09 0 0 1-0.06 0.16zm28.49-1.7h-0.05a0.12 0.12 0 0 1-0.06-0.15 5.1 5.1 0 0 0 0.36-1.15 0.11 0.11 0 0 1 0.13-0.09 0.12 0.12 0 0 1 0.09 0.14 5.27 5.27 0 0 1-0.37 1.1 0.1 0.1 0 0 1-0.1 0.1zm-29.78-0.21a0.12 0.12 0 0 1-0.11-0.09 5.53 5.53 0 0 1-0.33-1.12 0.11 0.11 0 0 1 0.22 0 6 6 0 0 0 0.32 1.07 0.11 0.11 0 0 1-0.06 0.15zm30.27-2.09a0.12 0.12 0 0 1-0.12-0.12v-1.1a0.11 0.11 0 0 1 0.12-0.11 0.11 0.11 0 0 1 0.11 0.11v1.15a0.11 0.11 0 0 1-0.11 0.07zm-30.69-0.14a0.11 0.11 0 0 1-0.11-0.12v-1.14a0.11 0.11 0 0 1 0.22 0v1.14a0.11 0.11 0 0 1-0.11 0.12zm30.69-2.1a0.12 0.12 0 0 1-0.12-0.12v-1.14a0.11 0.11 0 0 1 0.12-0.11 0.11 0.11 0 0 1 0.11 0.11v1.14a0.11 0.11 0 0 1-0.11 0.12zm-30.69-0.18a0.11 0.11 0 0 1-0.11-0.12v-1.14a0.11 0.11 0 0 1 0.22 0v1.14a0.11 0.11 0 0 1-0.11 0.12zm30.69-2.11a0.11 0.11 0 0 1-0.12-0.11v-1.14a0.11 0.11 0 0 1 0.12-0.11 0.11 0.11 0 0 1 0.11 0.11v1.14a0.11 0.11 0 0 1-0.11 0.11zm-30.69-0.18a0.11 0.11 0 0 1-0.11-0.11v-1.18a0.11 0.11 0 0 1 0.22 0v1.14a0.11 0.11 0 0 1-0.11 0.15zm30.69-2.1a0.11 0.11 0 0 1-0.12-0.11v-1.14a0.12 0.12 0 0 1 0.12-0.12 0.11 0.11 0 0 1 0.11 0.12v1.14a0.11 0.11 0 0 1-0.11 0.11zm-30.69-0.19a0.11 0.11 0 0 1-0.11-0.1v-1.14a0.11 0.11 0 1 1 0.22 0v1.14a0.11 0.11 0 0 1-0.11 0.1zm30.69-2.1a0.11 0.11 0 0 1-0.12-0.11v-1.13a0.12 0.12 0 0 1 0.12-0.12 0.11 0.11 0 0 1 0.11 0.12v1.14a0.11 0.11 0 0 1-0.11 0.11zm-30.69-0.17a0.11 0.11 0 0 1-0.11-0.11v-1.14a0.11 0.11 0 1 1 0.22 0v1.14a0.11 0.11 0 0 1-0.11 0.11zm30.69-2.1a0.12 0.12 0 0 1-0.12-0.12v-0.08a5.14 5.14 0 0 0-0.1-1 0.11 0.11 0 0 1 0.09-0.13 0.13 0.13 0 0 1 0.14 0.09 5.46 5.46 0 0 1 0.1 1.07v0.08a0.11 0.11 0 0 1-0.11 0.09zm-30.69-0.18a0.11 0.11 0 0 1-0.11-0.12 5 5 0 0 1 0.14-1.15 0.12 0.12 0 0 1 0.14-0.09 0.11 0.11 0 0 1 0.08 0.14 5.11 5.11 0 0 0-0.13 1.11 0.13 0.13 0 0 1-0.12 0.11zm30.25-2a0.12 0.12 0 0 1-0.11-0.07 5.52 5.52 0 0 0-0.54-1 0.1 0.1 0 0 1 0-0.15 0.1 0.1 0 0 1 0.15 0 5.11 5.11 0 0 1 0.57 1 0.11 0.11 0 0 1-0.06 0.15zm-29.74-0.21a0.11 0.11 0 0 1-0.06-0.15 6.31 6.31 0 0 1 0.6-1 0.11402 0.11402 0 0 1 0.18 0.14 5.78 5.78 0 0 0-0.57 1 0.11 0.11 0 0 1-0.15 0.01zm28.43-1.68a0.11 0.11 0 0 1-0.08 0 5.32 5.32 0 0 0-0.89-0.67 0.1 0.1 0 0 1 0-0.15 0.1 0.1 0 0 1 0.15 0 5.29 5.29 0 0 1 0.94 0.69 0.11 0.11 0 0 1 0 0.16 0.09 0.09 0 0 1-0.12-0.03zm-27.05-0.12a0.12 0.12 0 0 1-0.08 0 0.11 0.11 0 0 1 0-0.16 5 5 0 0 1 0.85-0.6l0.1-0.07a0.12 0.12 0 0 1 0.16 0.05 0.11 0.11 0 0 1 0 0.15l-0.11 0.06a5.19 5.19 0 0 0-0.81 0.58 0.11 0.11 0 0 1-0.11-0.01zm25.16-1.13h-0.06l-1-0.57a0.11 0.11 0 0 1 0-0.15 0.12 0.12 0 0 1 0.16-0.05l1 0.57a0.13 0.13 0 0 1 0 0.16 0.11 0.11 0 0 1-0.11 0.04zm-23.24-0.09a0.11 0.11 0 0 1-0.1-0.06 0.12 0.12 0 0 1 0-0.16l1-0.57a0.11 0.11 0 0 1 0.15 0.05 0.1 0.1 0 0 1 0 0.15l-0.97 0.57zm21.25-1h-0.06l-1-0.57a0.11 0.11 0 0 1 0-0.16 0.11 0.11 0 0 1 0.15 0l1 0.57a0.12 0.12 0 0 1 0 0.16 0.11 0.11 0 0 1-0.09-0.05zm-19.28-0.09a0.12 0.12 0 0 1-0.1-0.06 0.12 0.12 0 0 1 0.05-0.16l1-0.57a0.12 0.12 0 1 1 0.12 0.2l-1 0.57zm17.31-1.13h-0.06l-1-0.57a0.12 0.12 0 0 1 0-0.16 0.11 0.11 0 0 1 0.15 0l1 0.57a0.11 0.11 0 0 1 0 0.16 0.11 0.11 0 0 1-0.09 0zm-15.33-0.09a0.13 0.13 0 0 1-0.1-0.06 0.12 0.12 0 0 1 0-0.16l1-0.57a0.13 0.13 0 0 1 0.16 0 0.12 0.12 0 0 1-0.05 0.16l-1 0.57zm13.35-1.06h-0.06l-1-0.57a0.12 0.12 0 1 1 0.12-0.2l1 0.57a0.11 0.11 0 0 1-0.06 0.21zm-11.37-0.09a0.12 0.12 0 0 1-0.1 0 0.11 0.11 0 0 1 0-0.16l1-0.57a0.11413 0.11413 0 0 1 0.11 0.2l-1 0.57zm9.39-1-1-0.57a0.11 0.11 0 0 1 0-0.16 0.11 0.11 0 0 1 0.15 0l1 0.57a0.11 0.11 0 0 1-0.06 0.21zm-7.42-0.09a0.11 0.11 0 0 1-0.06-0.21l0.93-0.53h0.06a0.12 0.12 0 0 1 0.12 0.2h-0.07l-0.92 0.53zm5.4-1a5.93 5.93 0 0 0-1.09-0.25 0.11 0.11 0 0 1-0.1-0.12 0.11 0.11 0 0 1 0.13-0.1 5 5 0 0 1 1.13 0.26 0.11 0.11 0 0 1 0.07 0.14 0.12 0.12 0 0 1-0.14 0.09zm-3.36 0a0.12 0.12 0 0 1-0.11-0.09 0.11 0.11 0 0 1 0.07-0.14 5.6 5.6 0 0 1 1.18-0.25 0.11 0.11 0 0 1 0.13 0.1 0.13 0.13 0 0 1-0.11 0.13 5.12 5.12 0 0 0-1.09 0.21z"/>
  </g>
  <g transform="translate(82.297)" data-name="&lt;Group&gt;">
   <path class="cls-6" d="m8.88 39.71 9.12 5.29a5 5 0 0 0 5 0l9-5.29a5 5 0 0 0 2.48-4.3v-10.5a5 5 0 0 0-2.48-4.3l-9.09-5.25a5 5 0 0 0-5 0l-9.03 5.25a5 5 0 0 0-2.49 4.3v10.5a5 5 0 0 0 2.49 4.3z"/>
   <path class="cls-4" d="m20.45 45.74a5.15 5.15 0 0 1-2.54-0.68l-9.09-5.25a5.09 5.09 0 0 1-2.54-4.4v-10.5a5.08 5.08 0 0 1 2.54-4.4l9.09-5.25a5.09 5.09 0 0 1 5.09 0l9.09 5.25a5.1 5.1 0 0 1 2.54 4.4v10.5a5.11 5.11 0 0 1-2.54 4.4l-9.09 5.25a5.15 5.15 0 0 1-2.55 0.68zm-11.51-6.13 9.06 5.25a4.88 4.88 0 0 0 4.85 0l9.15-5.25a4.85 4.85 0 0 0 2.43-4.2v-10.5a4.85 4.85 0 0 0-2.43-4.2l-9.09-5.25a4.83 4.83 0 0 0-4.85 0l-9.12 5.25a4.85 4.85 0 0 0-2.43 4.2v10.5a4.85 4.85 0 0 0 2.43 4.2z"/>
  </g>
  <g class="cls-7" transform="translate(82.297)" clip-path="url(#clip-path)">
   <polygon class="cls-4" points="11.62 34.15 11.62 47.34 19.88 47.54 19.88 34.35 47.44 34.15 47.44 25.88 19.88 25.88 19.88 13.98 11.62 13.98 11.62 25.88 -2.17 25.88 -2.17 34.15"/>
  </g>
 </g>
</svg>
