<svg xmlns="http://www.w3.org/2000/svg" xmlns:svg="http://www.w3.org/2000/svg" xmlns:xlink="http://www.w3.org/1999/xlink" id="svg4288" width="419.404" height="227.646" version="1.1"><defs id="defs4290"><linearGradient id="linearGradient3882" x1="34.293" x2="301.226" y1="122.362" y2="122.362" gradientTransform="translate(158.5,399)" gradientUnits="userSpaceOnUse" xlink:href="#linearGradient4735"/><linearGradient id="linearGradient4735"><stop style="stop-color:#cdd5ff;stop-opacity:1" id="stop4737" offset="0"/><stop style="stop-color:#445fff;stop-opacity:1" id="stop4739" offset="1"/></linearGradient><filter id="filter3831" width="1.199" height="1.303" x="-.099" y="-.152" color-interpolation-filters="sRGB"><feGaussianBlur id="feGaussianBlur3833" stdDeviation="11.04"/></filter><filter id="filter5558-7" color-interpolation-filters="sRGB"><feGaussianBlur id="feGaussianBlur5560-7" stdDeviation="3.617"/></filter><linearGradient id="linearGradient3882-6" x1="34.293" x2="301.226" y1="122.362" y2="122.362" gradientTransform="translate(170.53831,664.82299)" gradientUnits="userSpaceOnUse" xlink:href="#linearGradient4735"/><linearGradient id="linearGradient3770"><stop id="stop3772" offset="0" style="stop-color:#e6e6e6;stop-opacity:1"/><stop id="stop3774" offset="1" style="stop-color:#a1a1a1;stop-opacity:1"/></linearGradient><filter id="filter3831-7" width="1.199" height="1.303" x="-.099" y="-.152" color-interpolation-filters="sRGB"><feGaussianBlur id="feGaussianBlur3833-1" stdDeviation="11.04"/></filter><linearGradient id="linearGradient3882-62" x1="34.293" x2="301.226" y1="122.362" y2="122.362" gradientTransform="translate(705.61449,380.82299)" gradientUnits="userSpaceOnUse" xlink:href="#linearGradient4735"/><filter style="color-interpolation-filters:sRGB" id="filter3831-2" width="1.199" height="1.303" x="-.099" y="-.152"><feGaussianBlur id="feGaussianBlur3833-7" stdDeviation="11.04"/></filter><filter style="color-interpolation-filters:sRGB" id="filter5558-7-0"><feGaussianBlur id="feGaussianBlur5560-7-9" stdDeviation="3.617"/></filter><linearGradient id="linearGradient936" x1="34.293" x2="301.226" y1="122.362" y2="122.362" gradientTransform="translate(607.61449,380.82299)" gradientUnits="userSpaceOnUse" xlink:href="#linearGradient4735"/><filter id="filter5558-7-4" color-interpolation-filters="sRGB"><feGaussianBlur id="feGaussianBlur5560-7-1" stdDeviation="3.617"/></filter></defs><metadata id="metadata4293"/><g id="layer1" transform="translate(-165.29794,-418.5392)"><path style="opacity:0;fill:none;stroke:#cfc7c7;stroke-width:.81335908px;stroke-linecap:butt;stroke-linejoin:miter;stroke-opacity:1" id="path5271-9" d="m 457.21437,556.17206 -69.95269,-53.8871 121.08875,-56.50055 68.11082,44.93005 z"/><path id="path5536-4" d="m 420.24766,493.82676 c 0,0 -6.50484,4.67166 -6.50484,4.67166 0,0 54.68353,40.87827 54.68353,40.87827 4.52916,3.38576 8.89183,5.34185 13.06932,5.86082 4.17483,0.51866 8.73011,-0.45699 13.58007,-2.95819 0,0 -6.16586,-5.89315 -6.16586,-5.89315 -1.38842,0.51449 -2.63994,0.92205 -3.70989,1.18563 -1.13265,0.21869 -2.20286,0.25981 -3.25144,0.11951 -1.04873,-0.14028 -2.17253,-0.51028 -3.31092,-1.06995 -1.13728,-0.55911 -2.37658,-1.34496 -3.77586,-2.38044 0,0 -54.61411,-40.41416 -54.61411,-40.41416 0,0 0,0 0,0 m 90.10277,-42.04235 c 0,0 -5.30979,3.97779 -5.30979,3.97779 0,0 22.08703,14.69253 22.08703,14.69253 -1.43253,-0.0185 -3.29827,0.14242 -5.65009,0.50831 -2.30942,0.34333 -4.56097,1.03669 -6.73277,2.1009 -2.71593,1.33096 -4.60649,2.91836 -5.62109,4.75028 -0.97139,1.81874 -1.16341,3.79877 -0.57968,5.94903 0.58733,2.16333 1.92618,4.43973 4.03504,6.83683 2.1712,2.38592 5.0621,4.8014 8.59791,7.23469 3.73248,2.56863 7.53304,4.65985 11.47548,6.28528 3.94197,1.56206 7.81202,2.62525 11.59646,3.17408 3.78296,0.54865 7.40348,0.56811 10.8827,0.0846 3.46807,-0.4819 6.64699,-1.50681 9.50383,-3.075 3.0755,-1.68822 5.53666,-3.3359 7.33003,-4.98167 1.78304,-1.63631 3.12106,-3.05071 4.05621,-4.21693 0,0 -65.67127,-43.32077 -65.67127,-43.32077 0,0 0,0 0,0 m -112.43335,56.60393 c -1.46716,0.69013 -2.25662,1.64667 -2.35894,2.88348 -0.1,1.16972 0.6351,2.35282 2.22332,3.57628 1.59241,1.22669 3.3827,1.98615 5.35666,2.25145 1.97518,0.19306 3.69904,-0.0592 5.16469,-0.76564 1.46186,-0.7045 2.23286,-1.65188 2.30825,-2.82447 0.0763,-1.23984 -0.67444,-2.4822 -2.26513,-3.69084 -1.58656,-1.20548 -3.35913,-1.88342 -5.30915,-2.0761 -1.94879,-0.26306 -3.65629,-0.0424 -5.1197,0.64584 0,0 0,0 0,0 m 74.74641,-14.79255 c -2.36948,1.16098 -4.22348,2.64984 -5.52999,4.47118 -1.31414,1.83216 -1.89175,3.88128 -1.69541,6.18108 0.19767,2.31468 1.27272,4.84343 3.23714,7.60079 1.91873,2.73313 4.95018,5.60789 9.05819,8.59828 3.53307,2.57187 7.19436,4.75254 11.02832,6.52264 3.83837,1.70244 7.74053,2.88771 11.6569,3.5583 3.91597,0.67055 7.78577,0.76511 11.6697,0.28037 3.86195,-0.55598 7.56344,-1.81194 11.09322,-3.74952 2.78514,-1.52883 4.93549,-3.09261 6.46584,-4.70045 1.57302,-1.62712 2.52704,-2.88506 2.83556,-3.73882 0,0 -8.08341,-4.41784 -8.08341,-4.41784 -0.37816,0.80218 -1.18269,1.86447 -2.37062,3.18128 -1.20268,1.25209 -3.08523,2.54884 -5.6145,3.91309 -4.52274,2.43953 -9.13005,3.35543 -13.84784,2.6839 -4.7202,-0.67183 -9.69934,-2.70653 -14.88177,-6.04207 0,0 27.726,-14.44392 27.726,-14.44392 -0.42451,-0.35657 -0.8743,-0.72773 -1.40797,-1.09873 -0.59247,-0.41182 -1.07129,-0.7447 -1.42625,-0.9915 -7.87954,-5.47767 -15.1075,-8.76216 -21.72549,-9.95961 -6.67542,-1.23764 -12.70059,-0.53678 -18.18768,2.15157 0,0 6e-5,-2e-5 6e-5,-2e-5 m -60.2724,30.95605 c 0,0 46.94509,36.10553 46.94509,36.10553 0,0 8.12786,-4.45039 8.12786,-4.45039 0,0 -46.88583,-35.67706 -46.88583,-35.67706 0,0 -8.18712,4.02192 -8.18712,4.02192 0,0 0,0 0,0 m 67.00142,-26.05236 c 2.98223,-1.48482 6.46682,-1.81141 10.50655,-0.96316 4.03426,0.7816 7.86676,2.46635 11.51784,5.09113 0,0 -20.26093,10.39116 -20.26093,10.39116 -1.43635,-1.23228 -2.69729,-2.50707 -3.7467,-3.85279 -0.99259,-1.36828 -1.62762,-2.69673 -1.8912,-3.99175 -0.26261,-1.29041 -0.0598,-2.49208 0.51383,-3.62641 0.56647,-1.198 1.67882,-2.21075 3.36061,-3.04818 0,0 0,0 0,0 m 43.22517,-21.12874 c 1.82792,-0.9108 3.9024,-1.50727 6.17658,-1.77151 2.26961,-0.26364 4.17255,-0.32076 5.78258,-0.1892 0,0 28.98306,19.27984 28.98306,19.27984 -0.41677,0.51319 -1.12831,1.16533 -2.11225,1.98528 -0.99974,0.75671 -2.39231,1.62098 -4.1971,2.59445 -3.58228,1.93226 -7.93301,2.47796 -13.05494,1.64777 -5.18315,-0.87109 -10.46102,-3.12583 -15.8478,-6.79895 -2.35449,-1.60546 -4.37957,-3.20437 -6.03373,-4.80015 -1.64786,-1.58967 -2.74205,-3.0952 -3.30986,-4.52613 -0.62331,-1.46452 -0.68535,-2.83253 -0.1275,-4.06143 0.54676,-1.28705 1.80955,-2.39748 3.74096,-3.35997 0,0 0,0 0,0" style="font-size:72px;font-style:normal;font-variant:normal;font-weight:400;font-stretch:normal;line-height:125%;letter-spacing:0;word-spacing:0;opacity:.54918033;fill:#000;fill-opacity:1;stroke:none;filter:url(#filter5558-7);font-family:Ubuntu;-inkscape-font-specification:Ubuntu"/><path style="font-size:72px;font-style:normal;font-variant:normal;font-weight:400;font-stretch:normal;line-height:125%;letter-spacing:0;word-spacing:0;fill:#fff;fill-opacity:1;stroke:#000;font-family:Ubuntu;-inkscape-font-specification:Ubuntu;stroke-opacity:1;stroke-width:1;stroke-miterlimit:4;stroke-dasharray:none" id="path5182-7" d="m 418.24766,487.82676 c 0,0 -6.50484,4.67166 -6.50484,4.67166 0,0 54.68353,40.87827 54.68353,40.87827 4.52916,3.38575 8.89183,5.34184 13.06932,5.86081 4.17483,0.51866 8.73011,-0.45699 13.58007,-2.95819 0,0 -6.16586,-5.89314 -6.16586,-5.89314 -1.38842,0.51449 -2.63994,0.92205 -3.70989,1.18563 -1.13265,0.21869 -2.20286,0.25981 -3.25144,0.11951 -1.04873,-0.14028 -2.17253,-0.51028 -3.31092,-1.06995 -1.13728,-0.55911 -2.37658,-1.34496 -3.77586,-2.38044 0,0 -54.61411,-40.41416 -54.61411,-40.41416 0,0 0,0 0,0 m 90.10277,-42.04235 c 0,0 -5.30979,3.97779 -5.30979,3.97779 0,0 22.08703,14.69253 22.08703,14.69253 -1.43253,-0.0185 -3.29827,0.14242 -5.65009,0.50831 -2.30942,0.34333 -4.56097,1.03669 -6.73277,2.1009 -2.71593,1.33096 -4.60649,2.91836 -5.62109,4.75029 -0.97139,1.81873 -1.16341,3.79876 -0.57968,5.94902 0.58733,2.16333 1.92618,4.43973 4.03504,6.83683 2.1712,2.38592 5.0621,4.8014 8.59791,7.23469 3.73248,2.56863 7.53304,4.65985 11.47548,6.28528 3.94197,1.56206 7.81202,2.62525 11.59646,3.17408 3.78296,0.54865 7.40348,0.56811 10.8827,0.0846 3.46807,-0.4819 6.64699,-1.50681 9.50383,-3.075 3.0755,-1.68822 5.53666,-3.3359 7.33003,-4.98167 1.78304,-1.63631 3.12106,-3.05071 4.05621,-4.21693 0,0 -65.67127,-43.32077 -65.67127,-43.32077 0,0 0,0 0,0 m -112.43335,56.60393 c -1.46716,0.69013 -2.25662,1.64667 -2.35894,2.88348 -0.1,1.16972 0.6351,2.35282 2.22332,3.57628 1.59241,1.22669 3.3827,1.98615 5.35666,2.25145 1.97518,0.19306 3.69904,-0.0592 5.16469,-0.76564 1.46186,-0.7045 2.23286,-1.65188 2.30825,-2.82447 0.0763,-1.23984 -0.67444,-2.4822 -2.26513,-3.69084 -1.58656,-1.20548 -3.35913,-1.88342 -5.30915,-2.0761 -1.94879,-0.26306 -3.65629,-0.0424 -5.1197,0.64584 0,0 0,0 0,0 m 74.74641,-14.79255 c -2.36948,1.16098 -4.22348,2.64984 -5.52999,4.47118 -1.31414,1.83216 -1.89175,3.88128 -1.69541,6.18108 0.19767,2.31468 1.27272,4.84343 3.23714,7.60079 1.91873,2.73313 4.95018,5.60789 9.05819,8.59828 3.53307,2.57187 7.19436,4.75254 11.02832,6.52264 3.83837,1.70244 7.74053,2.88771 11.6569,3.5583 3.91597,0.67055 7.78577,0.76511 11.6697,0.28037 3.86195,-0.55598 7.56344,-1.81194 11.09322,-3.74952 2.78514,-1.52883 4.93549,-3.09261 6.46584,-4.70045 1.57302,-1.62712 2.52704,-2.88506 2.83556,-3.73882 0,0 -8.08341,-4.41784 -8.08341,-4.41784 -0.37816,0.80218 -1.18269,1.86447 -2.37062,3.18128 -1.20268,1.25209 -3.08523,2.54884 -5.6145,3.91309 -4.52274,2.43953 -9.13005,3.35543 -13.84784,2.6839 -4.7202,-0.67183 -9.69934,-2.70653 -14.88177,-6.04207 0,0 27.726,-14.44392 27.726,-14.44392 -0.42451,-0.35657 -0.8743,-0.72773 -1.40797,-1.09873 -0.59247,-0.41182 -1.07129,-0.7447 -1.42625,-0.9915 -7.87954,-5.47767 -15.1075,-8.76216 -21.72549,-9.95961 -6.67542,-1.23764 -12.70059,-0.53678 -18.18768,2.15157 0,0 6e-5,-2e-5 6e-5,-2e-5 m -60.2724,30.95605 c 0,0 46.94509,36.10553 46.94509,36.10553 0,0 8.12786,-4.45039 8.12786,-4.45039 0,0 -46.88583,-35.67706 -46.88583,-35.67706 0,0 -8.18712,4.02192 -8.18712,4.02192 0,0 0,0 0,0 m 67.00142,-26.05236 c 2.98223,-1.48482 6.46682,-1.81141 10.50655,-0.96316 4.03426,0.7816 7.86676,2.46635 11.51784,5.09113 0,0 -20.26093,10.39116 -20.26093,10.39116 -1.43635,-1.23228 -2.69729,-2.50707 -3.7467,-3.85279 -0.99259,-1.36828 -1.62762,-2.69673 -1.8912,-3.99175 -0.26261,-1.29041 -0.0598,-2.49208 0.51383,-3.62641 0.56647,-1.198 1.67882,-2.21075 3.36061,-3.04818 0,0 0,0 0,0 m 43.22517,-21.12873 c 1.82792,-0.91081 3.9024,-1.50728 6.17658,-1.77152 2.26961,-0.26363 4.17255,-0.32076 5.78258,-0.18919 0,0 28.98306,19.27983 28.98306,19.27983 -0.41677,0.51319 -1.12831,1.16533 -2.11225,1.98528 -0.99974,0.75671 -2.39231,1.62098 -4.1971,2.59445 -3.58228,1.93226 -7.93301,2.47796 -13.05494,1.64777 -5.18315,-0.87109 -10.46102,-3.12583 -15.8478,-6.79895 -2.35449,-1.60546 -4.37957,-3.20437 -6.03373,-4.80015 -1.64786,-1.58967 -2.74205,-3.0952 -3.30986,-4.52613 -0.62331,-1.46452 -0.68535,-2.83253 -0.1275,-4.06143 0.54676,-1.28704 1.80955,-2.39748 3.74096,-3.35996 0,0 0,0 0,0"/><path id="path4523" style="opacity:.7;fill:#0d1339;fill-opacity:1;stroke:none;filter:url(#filter3831)" d="m 356.03409,577.98945 57,-29.625 m -96.375,-6 55.75,-25.875 m -90.25,-5.75 55,-22.5 m 0.25,0.125 -32.875,-26.125 m -53.75,19.75 31.625,28.625 m -90.61586,-6.53654 159.09903,-59.04342 33.94113,23.68808 -47.7297,19.62221 121.62235,96.52008 -57.27564,34.82501 -119.14749,-108.89445 -60.45764,25.10229 z"/><path d="m 357.03409,566.98945 57,-29.625 m -96.375,-6 55.75,-25.875 m -90.25,-5.75 55,-22.5 m 0.25,0.125 -32.875,-26.125 m -53.75,19.75 31.625,28.625 m -90.61586,-6.53654 159.09903,-59.04342 33.94113,23.68808 -47.7297,19.62221 121.62235,96.52008 -57.27564,34.82501 -119.14749,-108.89445 -60.45764,25.10229 z" style="opacity:.8;fill:url(#linearGradient3882);fill-opacity:1;stroke:none" id="path4519"/><path style="color:#000;font-style:normal;font-variant:normal;font-weight:400;font-stretch:normal;font-size:medium;line-height:normal;font-family:sans-serif;font-variant-ligatures:normal;font-variant-position:normal;font-variant-caps:normal;font-variant-numeric:normal;font-variant-alternates:normal;font-feature-settings:normal;text-indent:0;text-align:start;text-decoration:none;text-decoration-line:none;text-decoration-style:solid;text-decoration-color:#000;letter-spacing:normal;word-spacing:normal;text-transform:none;writing-mode:lr-tb;direction:ltr;text-orientation:mixed;dominant-baseline:auto;baseline-shift:baseline;text-anchor:start;white-space:normal;shape-padding:0;clip-rule:nonzero;display:inline;overflow:visible;visibility:visible;opacity:1;isolation:auto;mix-blend-mode:normal;color-interpolation:sRGB;color-interpolation-filters:linearRGB;solid-color:#000;solid-opacity:1;vector-effect:none;fill:#fff;fill-opacity:1;fill-rule:nonzero;stroke:none;stroke-width:4;stroke-linecap:butt;stroke-linejoin:miter;stroke-miterlimit:4;stroke-dasharray:none;stroke-dashoffset:0;stroke-opacity:1;color-rendering:auto;image-rendering:auto;shape-rendering:auto;text-rendering:auto;enable-background:accumulate" id="path4640-6" d="M 187.78906 16.330078 L 30.464844 74.714844 L 32.541016 76.912109 L 59.5625 105.52344 L 63.513672 103.88281 L 37.523438 76.363281 L 92.695312 55.886719 L 119.79102 80.412109 L 121.0293 81.533203 L 119.1582 82.310547 L 122.41797 85.289062 L 124.0957 84.591797 L 238.61914 189.25977 L 242.17969 187.09375 L 201.56445 149.97461 L 253.60547 122.92773 L 250.17188 120.20312 L 198.41992 147.09961 L 162.55078 114.31641 L 213.1582 90.828125 L 209.65234 88.046875 L 159.34961 111.39258 L 128.09961 82.830078 L 177.57617 62.589844 L 173.98438 59.738281 L 125.03711 79.763672 L 123.89648 78.732422 L 96.925781 54.318359 L 146.37305 35.966797 L 174.32422 58.179688 L 178.5625 56.4375 L 150.75586 34.339844 L 191.7793 19.115234 L 187.78906 16.330078 z" transform="translate(165.29794,418.5392)"/><path id="path4640" style="fill:none;stroke:#000;stroke-width:4;stroke-linecap:butt;stroke-linejoin:miter;stroke-miterlimit:4;stroke-opacity:1;stroke-dasharray:none" d="m 357.03409,566.98945 57,-29.625 m -96.375,-6 55.75,-25.875 m -90.25,-5.75 55,-22.5 m 0.25,0.125 -32.875,-26.125 m -53.75,19.75 31.625,28.625 m -90.61586,-6.53654 159.09903,-59.04342 33.94113,23.68808 -47.7297,19.62221 121.62235,96.52008 -57.27564,34.82501 -119.14749,-108.89445 -60.45764,25.10229 z"/><path id="path4523-7" style="opacity:.7;fill:#232323;fill-opacity:1;stroke:none;filter:url(#filter3831-7)" d="m 368.0724,843.81244 57,-29.625 m -96.375,-6 55.75,-25.875 m -90.25,-5.75 55,-22.5 m 0.25,0.125 -32.875,-26.125 m -53.75,19.75 31.625,28.625 m -90.61586,-6.53654 159.09902,-59.04342 33.94113,23.68808 -47.7297,19.62221 121.62236,96.52008 -57.27565,34.82501 -119.14749,-108.89445 -60.45764,25.10229 z"/><path d="m 369.0724,832.81244 57,-29.625 m -96.375,-6 55.75,-25.875 m -90.25,-5.75 55,-22.5 m 0.25,0.125 -32.875,-26.125 m -53.75,19.75 31.625,28.625 m -90.61586,-6.53654 159.09902,-59.04342 33.94113,23.68808 -47.7297,19.62221 121.62236,96.52008 -57.27565,34.82501 -119.14749,-108.89445 -60.45764,25.10229 z" style="opacity:.8;fill:url(#linearGradient3882-6);fill-opacity:1;stroke:none" id="path4519-6"/><path style="font-size:medium;font-style:normal;font-variant:normal;font-weight:400;font-stretch:normal;text-indent:0;text-align:start;text-decoration:none;line-height:normal;letter-spacing:normal;word-spacing:normal;text-transform:none;direction:ltr;block-progression:tb;writing-mode:lr-tb;text-anchor:start;baseline-shift:baseline;color:#000;fill:#fff;fill-opacity:1;stroke:#000;stroke-width:1;stroke-miterlimit:4;stroke-opacity:1;stroke-dasharray:none;marker:none;visibility:visible;display:inline;overflow:visible;enable-background:accumulate;font-family:Sans;-inkscape-font-specification:Sans" id="path27" d="m 364.22581,697.60424 -1,0.375 -159.09375,59.03125 -2.84375,1.0625 2.09375,2.1875 30.0625,31.84375 0.9375,1 1.28125,-0.53125 59.28125,-24.625 118.1875,108.03125 1.125,1.03125 1.28125,-0.78125 57.25,-34.84375 2.46875,-1.46875 -2.25,-1.78125 -118.96875,-94.40625 44.59375,-18.34375 3.375,-1.375 -3,-2.09375 -33.9375,-23.6875 -0.84375,-0.625 z m -0.59375,4.5 30.0625,21 -43.0625,17.6875 -29.0625,-23.09375 42.0625,-15.59375 z m -46.4375,17.21875 29.125,23.15625 -50.4375,20.625 -28.125,-25.4375 49.4375,-18.34375 z m -53.65625,19.90625 28.3125,25.65625 -56.4375,23.46875 -27.0625,-28.625 55.1875,-20.5 z m 86.21875,6.1875 32.03125,25.40625 -51.59375,23.9375 -31.25,-28.5625 50.8125,-20.78125 z m 35.53125,28.1875 36.9375,29.34375 -52.96875,27.53125 -35.84375,-32.78125 51.875,-24.09375 z m 40.375,32.0625 42.59375,33.8125 -53.53125,32.53125 -42.3125,-38.6875 53.25,-27.65625 z"/><path style="opacity:0;fill:none;stroke:#cfc7c7;stroke-width:.81335908px;stroke-linecap:butt;stroke-linejoin:miter;stroke-opacity:1" id="path5271-9-3" d="m 906.3289,537.99505 -69.95273,-53.8871 121.08873,-56.50055 68.1108,44.93005 z"/><path id="path5536-4-6" d="m 869.36215,475.64975 c 0,0 -6.50484,4.67166 -6.50484,4.67166 0,0 54.68349,40.87827 54.68349,40.87827 4.5292,3.38576 8.8919,5.34185 13.0694,5.86082 4.1748,0.51866 8.7301,-0.45699 13.58,-2.95819 0,0 -6.1658,-5.89315 -6.1658,-5.89315 -1.3884,0.51449 -2.64,0.92205 -3.7099,1.18563 -1.1327,0.21869 -2.2029,0.25981 -3.2515,0.11951 -1.0487,-0.14028 -2.1725,-0.51028 -3.3109,-1.06995 -1.1373,-0.55911 -2.3766,-1.34496 -3.7758,-2.38044 0,0 -54.61415,-40.41416 -54.61415,-40.41416 0,0 0,0 0,0 M 959.4649,433.6074 c 0,0 -5.3098,3.97779 -5.3098,3.97779 0,0 22.0871,14.69253 22.0871,14.69253 -1.4326,-0.0185 -3.2983,0.14242 -5.6501,0.50831 -2.3094,0.34333 -4.561,1.03669 -6.7328,2.1009 -2.7159,1.33096 -4.6065,2.91836 -5.6211,4.75028 -0.9714,1.81874 -1.1634,3.79877 -0.5797,5.94903 0.5874,2.16333 1.9262,4.43973 4.0351,6.83683 2.1712,2.38592 5.0621,4.8014 8.5979,7.23469 3.7325,2.56863 7.533,4.65985 11.4755,6.28528 3.9419,1.56206 7.812,2.62525 11.5964,3.17408 3.783,0.54865 7.4035,0.56811 10.8827,0.0846 3.4681,-0.4819 6.647,-1.50681 9.5039,-3.075 3.0755,-1.68822 5.5366,-3.3359 7.33,-4.98167 1.783,-1.63631 3.121,-3.05071 4.0562,-4.21693 0,0 -65.6713,-43.32077 -65.6713,-43.32077 0,0 0,0 0,0 m -112.43333,56.60393 c -1.46716,0.69013 -2.25662,1.64667 -2.35894,2.88348 -0.1,1.16972 0.6351,2.35282 2.22332,3.57628 1.59241,1.22669 3.3827,1.98615 5.35666,2.25145 1.97518,0.19306 3.69904,-0.0592 5.16469,-0.76564 1.46186,-0.7045 2.23286,-1.65188 2.30825,-2.82447 0.0763,-1.23984 -0.67444,-2.4822 -2.26513,-3.69084 -1.58656,-1.20548 -3.35913,-1.88342 -5.30915,-2.0761 -1.94879,-0.26306 -3.65629,-0.0424 -5.1197,0.64584 0,0 0,0 0,0 M 921.778,475.41873 c -2.3695,1.16098 -4.2235,2.64984 -5.53,4.47118 -1.3141,1.83216 -1.8918,3.88128 -1.6954,6.18108 0.1977,2.31468 1.2727,4.84343 3.2371,7.60079 1.9188,2.73313 4.9502,5.60789 9.0582,8.59828 3.5331,2.57187 7.1944,4.75254 11.0283,6.52264 3.8384,1.70244 7.7406,2.88771 11.6569,3.5583 3.916,0.67055 7.7858,0.76511 11.6697,0.28037 3.862,-0.55598 7.5635,-1.81194 11.0933,-3.74952 2.7851,-1.52883 4.9354,-3.09261 6.4658,-4.70045 1.573,-1.62712 2.527,-2.88506 2.8356,-3.73882 0,0 -8.0835,-4.41784 -8.0835,-4.41784 -0.3781,0.80218 -1.1826,1.86447 -2.3706,3.18128 -1.2027,1.25209 -3.0852,2.54884 -5.6145,3.91309 -4.5227,2.43953 -9.13,3.35543 -13.8478,2.6839 -4.7202,-0.67183 -9.6994,-2.70653 -14.8818,-6.04207 0,0 27.726,-14.44392 27.726,-14.44392 -0.4245,-0.35657 -0.8743,-0.72773 -1.408,-1.09873 -0.5924,-0.41182 -1.0712,-0.7447 -1.4262,-0.9915 -7.8795,-5.47767 -15.1075,-8.76216 -21.7255,-9.95961 -6.6754,-1.23764 -12.7006,-0.53678 -18.1877,2.15157 0,0 10e-5,-2e-5 10e-5,-2e-5 m -60.27242,30.95605 c 0,0 46.94512,36.10553 46.94512,36.10553 0,0 8.1278,-4.45039 8.1278,-4.45039 0,0 -46.8858,-35.67706 -46.8858,-35.67706 0,0 -8.18712,4.02192 -8.18712,4.02192 0,0 0,0 0,0 M 928.507,480.32242 c 2.9822,-1.48482 6.4668,-1.81141 10.5066,-0.96316 4.0342,0.7816 7.8667,2.46635 11.5178,5.09113 0,0 -20.2609,10.39116 -20.2609,10.39116 -1.4364,-1.23228 -2.6973,-2.50707 -3.7467,-3.85279 -0.9926,-1.36828 -1.6277,-2.69673 -1.8912,-3.99175 -0.2626,-1.29041 -0.06,-2.49208 0.5138,-3.62641 0.5665,-1.198 1.6788,-2.21075 3.3606,-3.04818 0,0 0,0 0,0 m 43.2252,-21.12874 c 1.8279,-0.9108 3.9024,-1.50727 6.1766,-1.77151 2.2696,-0.26364 4.1725,-0.32076 5.7825,-0.1892 0,0 28.9831,19.27984 28.9831,19.27984 -0.4168,0.51319 -1.1283,1.16533 -2.1123,1.98528 -0.9997,0.75671 -2.3923,1.62098 -4.1971,2.59445 -3.5822,1.93226 -7.933,2.47796 -13.0549,1.64777 -5.1831,-0.87109 -10.461,-3.12583 -15.8478,-6.79895 -2.3545,-1.60546 -4.3796,-3.20437 -6.0337,-4.80015 -1.6479,-1.58967 -2.7421,-3.0952 -3.3099,-4.52613 -0.6233,-1.46452 -0.6853,-2.83253 -0.1275,-4.06143 0.5468,-1.28705 1.8096,-2.39748 3.741,-3.35997 0,0 0,0 0,0" style="font-style:normal;font-variant:normal;font-weight:400;font-stretch:normal;font-size:72px;line-height:125%;font-family:Ubuntu;-inkscape-font-specification:Ubuntu;letter-spacing:0;word-spacing:0;opacity:.54918033;fill:#000;fill-opacity:1;stroke:none;filter:url(#filter5558-7-0)"/><path style="font-style:normal;font-variant:normal;font-weight:400;font-stretch:normal;font-size:72px;line-height:125%;font-family:Ubuntu;-inkscape-font-specification:Ubuntu;letter-spacing:0;word-spacing:0;fill:#fff;fill-opacity:1;stroke:none" id="path5182-7-0" d="m 867.36215,469.64975 c 0,0 -6.50484,4.67166 -6.50484,4.67166 0,0 54.68349,40.87827 54.68349,40.87827 4.5292,3.38575 8.8919,5.34184 13.0694,5.86081 4.1748,0.51866 8.7301,-0.45699 13.58,-2.95819 0,0 -6.1658,-5.89314 -6.1658,-5.89314 -1.3884,0.51449 -2.64,0.92205 -3.7099,1.18563 -1.1327,0.21869 -2.2029,0.25981 -3.2515,0.11951 -1.0487,-0.14028 -2.1725,-0.51028 -3.3109,-1.06995 -1.1373,-0.55911 -2.3766,-1.34496 -3.7758,-2.38044 0,0 -54.61415,-40.41416 -54.61415,-40.41416 0,0 0,0 0,0 M 957.4649,427.6074 c 0,0 -5.3098,3.97779 -5.3098,3.97779 0,0 22.0871,14.69253 22.0871,14.69253 -1.4326,-0.0185 -3.2983,0.14242 -5.6501,0.50831 -2.3094,0.34333 -4.561,1.03669 -6.7328,2.1009 -2.7159,1.33096 -4.6065,2.91836 -5.6211,4.75029 -0.9714,1.81873 -1.1634,3.79876 -0.5797,5.94902 0.5874,2.16333 1.9262,4.43973 4.0351,6.83683 2.1712,2.38592 5.0621,4.8014 8.5979,7.23469 3.7325,2.56863 7.533,4.65985 11.4755,6.28528 3.9419,1.56206 7.812,2.62525 11.5964,3.17408 3.783,0.54865 7.4035,0.56811 10.8827,0.0846 3.4681,-0.4819 6.647,-1.50681 9.5039,-3.075 3.0755,-1.68822 5.5366,-3.3359 7.33,-4.98167 1.783,-1.63631 3.121,-3.05071 4.0562,-4.21693 0,0 -65.6713,-43.32077 -65.6713,-43.32077 0,0 0,0 0,0 m -112.43333,56.60393 c -1.46716,0.69013 -2.25662,1.64667 -2.35894,2.88348 -0.1,1.16972 0.6351,2.35282 2.22332,3.57628 1.59241,1.22669 3.3827,1.98615 5.35666,2.25145 1.97518,0.19306 3.69904,-0.0592 5.16469,-0.76564 1.46186,-0.7045 2.23286,-1.65188 2.30825,-2.82447 0.0763,-1.23984 -0.67444,-2.4822 -2.26513,-3.69084 -1.58656,-1.20548 -3.35913,-1.88342 -5.30915,-2.0761 -1.94879,-0.26306 -3.65629,-0.0424 -5.1197,0.64584 0,0 0,0 0,0 M 919.778,469.41873 c -2.3695,1.16098 -4.2235,2.64984 -5.53,4.47118 -1.3141,1.83216 -1.8918,3.88128 -1.6954,6.18108 0.1977,2.31468 1.2727,4.84343 3.2371,7.60079 1.9188,2.73313 4.9502,5.60789 9.0582,8.59828 3.5331,2.57187 7.1944,4.75254 11.0283,6.52264 3.8384,1.70244 7.7406,2.88771 11.6569,3.5583 3.916,0.67055 7.7858,0.76511 11.6697,0.28037 3.862,-0.55598 7.5635,-1.81194 11.0933,-3.74952 2.7851,-1.52883 4.9354,-3.09261 6.4658,-4.70045 1.573,-1.62712 2.527,-2.88506 2.8356,-3.73882 0,0 -8.0835,-4.41784 -8.0835,-4.41784 -0.3781,0.80218 -1.1826,1.86447 -2.3706,3.18128 -1.2027,1.25209 -3.0852,2.54884 -5.6145,3.91309 -4.5227,2.43953 -9.13,3.35543 -13.8478,2.6839 -4.7202,-0.67183 -9.6994,-2.70653 -14.8818,-6.04207 0,0 27.726,-14.44392 27.726,-14.44392 -0.4245,-0.35657 -0.8743,-0.72773 -1.408,-1.09873 -0.5924,-0.41182 -1.0712,-0.7447 -1.4262,-0.9915 -7.8795,-5.47767 -15.1075,-8.76216 -21.7255,-9.95961 -6.6754,-1.23764 -12.7006,-0.53678 -18.1877,2.15157 0,0 10e-5,-2e-5 10e-5,-2e-5 m -60.27242,30.95605 c 0,0 46.94512,36.10553 46.94512,36.10553 0,0 8.1278,-4.45039 8.1278,-4.45039 0,0 -46.8858,-35.67706 -46.8858,-35.67706 0,0 -8.18712,4.02192 -8.18712,4.02192 0,0 0,0 0,0 M 926.507,474.32242 c 2.9822,-1.48482 6.4668,-1.81141 10.5066,-0.96316 4.0342,0.7816 7.8667,2.46635 11.5178,5.09113 0,0 -20.2609,10.39116 -20.2609,10.39116 -1.4364,-1.23228 -2.6973,-2.50707 -3.7467,-3.85279 -0.9926,-1.36828 -1.6277,-2.69673 -1.8912,-3.99175 -0.2626,-1.29041 -0.06,-2.49208 0.5138,-3.62641 0.5665,-1.198 1.6788,-2.21075 3.3606,-3.04818 0,0 0,0 0,0 m 43.2252,-21.12873 c 1.8279,-0.91081 3.9024,-1.50728 6.1766,-1.77152 2.2696,-0.26363 4.1725,-0.32076 5.7825,-0.18919 0,0 28.9831,19.27983 28.9831,19.27983 -0.4168,0.51319 -1.1283,1.16533 -2.1123,1.98528 -0.9997,0.75671 -2.3923,1.62098 -4.1971,2.59445 -3.5822,1.93226 -7.933,2.47796 -13.0549,1.64777 -5.1831,-0.87109 -10.461,-3.12583 -15.8478,-6.79895 -2.3545,-1.60546 -4.3796,-3.20437 -6.0337,-4.80015 -1.6479,-1.58967 -2.7421,-3.0952 -3.3099,-4.52613 -0.6233,-1.46452 -0.6853,-2.83253 -0.1275,-4.06143 0.5468,-1.28704 1.8096,-2.39748 3.741,-3.35996 0,0 0,0 0,0"/><path id="path4523-6" style="opacity:.7;fill:#0d1339;fill-opacity:1;stroke:none;filter:url(#filter3831-2)" d="m 805.14858,559.81244 57,-29.625 m -96.375,-6 55.75,-25.875 m -90.25,-5.75 55,-22.5 m 0.25,0.125 -32.875,-26.125 m -53.75,19.75 31.625,28.625 m -90.61586,-6.53654 159.09903,-59.04342 33.94113,23.68808 -47.7297,19.62221 121.62232,96.52008 -57.27561,34.82501 L 731.4174,492.61841 670.95976,517.7207 Z"/><path d="m 806.14858,548.81244 57,-29.625 m -96.375,-6 55.75,-25.875 m -90.25,-5.75 55,-22.5 m 0.25,0.125 -32.875,-26.125 m -53.75,19.75 31.625,28.625 m -90.61586,-6.53654 159.09903,-59.04342 33.94113,23.68808 -47.7297,19.62221 121.62232,96.52008 -57.27561,34.82501 L 732.4174,481.61841 671.95976,506.7207 Z" style="opacity:.8;fill:url(#linearGradient936);fill-opacity:1;stroke:none" id="path4519-2"/><path id="path4640-61" style="fill:none;stroke:#fff;stroke-width:4;stroke-linecap:butt;stroke-linejoin:miter;stroke-miterlimit:4;stroke-dasharray:none;stroke-opacity:1" d="m 806.14858,548.81244 57,-29.625 m -96.375,-6 55.75,-25.875 m -90.25,-5.75 55,-22.5 m 0.25,0.125 -32.875,-26.125 m -53.75,19.75 31.625,28.625 m -90.61586,-6.53654 159.09903,-59.04342 33.94113,23.68808 -47.7297,19.62221 121.62232,96.52008 -57.27561,34.82501 L 732.4174,481.61841 671.95976,506.7207 Z"/><path style="opacity:0;fill:none;stroke:#cfc7c7;stroke-width:.813359px;stroke-linecap:butt;stroke-linejoin:miter;stroke-opacity:1" id="path5271-9-4" d="m 473.05263,821.84886 -69.95269,-53.8871 121.08875,-56.50055 68.11082,44.93005 z"/><path id="path5536-4-8" d="m 436.08592,759.50356 c 0,0 -6.50484,4.67166 -6.50484,4.67166 0,0 54.68353,40.87827 54.68353,40.87827 4.52916,3.38576 8.89183,5.34185 13.06932,5.86082 4.17483,0.51866 8.73011,-0.45699 13.58007,-2.95819 0,0 -6.16586,-5.89315 -6.16586,-5.89315 -1.38842,0.51449 -2.63994,0.92205 -3.70989,1.18563 -1.13265,0.21869 -2.20286,0.25981 -3.25144,0.11951 -1.04873,-0.14028 -2.17253,-0.51028 -3.31092,-1.06995 -1.13728,-0.55911 -2.37658,-1.34496 -3.77586,-2.38044 0,0 -54.61411,-40.41416 -54.61411,-40.41416 0,0 0,0 0,0 m 90.10277,-42.04235 c 0,0 -5.30979,3.97779 -5.30979,3.97779 0,0 22.08703,14.69253 22.08703,14.69253 -1.43253,-0.0185 -3.29827,0.14242 -5.65009,0.50831 -2.30942,0.34333 -4.56097,1.03669 -6.73277,2.1009 -2.71593,1.33096 -4.60649,2.91836 -5.62109,4.75028 -0.97139,1.81874 -1.16341,3.79877 -0.57968,5.94903 0.58733,2.16333 1.92618,4.43973 4.03504,6.83683 2.1712,2.38592 5.0621,4.8014 8.59791,7.23469 3.73248,2.56863 7.53304,4.65985 11.47548,6.28528 3.94197,1.56206 7.81202,2.62525 11.59646,3.17408 3.78296,0.54865 7.40348,0.56811 10.8827,0.0846 3.46807,-0.4819 6.64699,-1.50681 9.50383,-3.075 3.0755,-1.68822 5.53666,-3.3359 7.33003,-4.98167 1.78304,-1.63631 3.12106,-3.05071 4.05621,-4.21693 0,0 -65.67127,-43.32077 -65.67127,-43.32077 0,0 0,0 0,0 m -112.43335,56.60393 c -1.46716,0.69013 -2.25662,1.64667 -2.35894,2.88348 -0.1,1.16972 0.6351,2.35282 2.22332,3.57628 1.59241,1.22669 3.3827,1.98615 5.35666,2.25145 1.97518,0.19306 3.69904,-0.0592 5.16469,-0.76564 1.46186,-0.7045 2.23286,-1.65188 2.30825,-2.82447 0.0763,-1.23984 -0.67444,-2.4822 -2.26513,-3.69084 -1.58656,-1.20548 -3.35913,-1.88342 -5.30915,-2.0761 -1.94879,-0.26306 -3.65629,-0.0424 -5.1197,0.64584 0,0 0,0 0,0 m 74.74641,-14.79255 c -2.36948,1.16098 -4.22348,2.64984 -5.52999,4.47118 -1.31414,1.83216 -1.89175,3.88128 -1.69541,6.18108 0.19767,2.31468 1.27272,4.84343 3.23714,7.60079 1.91873,2.73313 4.95018,5.60789 9.05819,8.59828 3.53307,2.57187 7.19436,4.75254 11.02832,6.52264 3.83837,1.70244 7.74053,2.88771 11.6569,3.5583 3.91597,0.67055 7.78577,0.76511 11.6697,0.28037 3.86195,-0.55598 7.56344,-1.81194 11.09322,-3.74952 2.78514,-1.52883 4.93549,-3.09261 6.46584,-4.70045 1.57302,-1.62712 2.52704,-2.88506 2.83556,-3.73882 0,0 -8.08341,-4.41784 -8.08341,-4.41784 -0.37816,0.80218 -1.18269,1.86447 -2.37062,3.18128 -1.20268,1.25209 -3.08523,2.54884 -5.6145,3.91309 -4.52274,2.43953 -9.13005,3.35543 -13.84784,2.6839 -4.7202,-0.67183 -9.69934,-2.70653 -14.88177,-6.04207 0,0 27.726,-14.44392 27.726,-14.44392 -0.42451,-0.35657 -0.8743,-0.72773 -1.40797,-1.09873 -0.59247,-0.41182 -1.07129,-0.7447 -1.42625,-0.9915 -7.87954,-5.47767 -15.1075,-8.76216 -21.72549,-9.95961 -6.67542,-1.23764 -12.70059,-0.53678 -18.18768,2.15157 0,0 6e-5,-2e-5 6e-5,-2e-5 m -60.2724,30.95605 c 0,0 46.94509,36.10553 46.94509,36.10553 0,0 8.12786,-4.45039 8.12786,-4.45039 0,0 -46.88583,-35.67706 -46.88583,-35.67706 0,0 -8.18712,4.02192 -8.18712,4.02192 0,0 0,0 0,0 m 67.00142,-26.05236 c 2.98223,-1.48482 6.46682,-1.81141 10.50655,-0.96316 4.03426,0.7816 7.86676,2.46635 11.51784,5.09113 0,0 -20.26093,10.39116 -20.26093,10.39116 -1.43635,-1.23228 -2.69729,-2.50707 -3.7467,-3.85279 -0.99259,-1.36828 -1.62762,-2.69673 -1.8912,-3.99175 -0.26261,-1.29041 -0.0598,-2.49208 0.51383,-3.62641 0.56647,-1.198 1.67882,-2.21075 3.36061,-3.04818 0,0 0,0 0,0 m 43.22517,-21.12874 c 1.82792,-0.9108 3.9024,-1.50727 6.17658,-1.77151 2.26961,-0.26364 4.17255,-0.32076 5.78258,-0.1892 0,0 28.98306,19.27984 28.98306,19.27984 -0.41677,0.51319 -1.12831,1.16533 -2.11225,1.98528 -0.99974,0.75671 -2.39231,1.62098 -4.1971,2.59445 -3.58228,1.93226 -7.93301,2.47796 -13.05494,1.64777 -5.18315,-0.87109 -10.46102,-3.12583 -15.8478,-6.79895 -2.35449,-1.60546 -4.37957,-3.20437 -6.03373,-4.80015 -1.64786,-1.58967 -2.74205,-3.0952 -3.30986,-4.52613 -0.62331,-1.46452 -0.68535,-2.83253 -0.1275,-4.06143 0.54676,-1.28705 1.80955,-2.39748 3.74096,-3.35997 0,0 0,0 0,0" style="font-style:normal;font-variant:normal;font-weight:400;font-stretch:normal;font-size:72px;line-height:125%;font-family:Ubuntu;-inkscape-font-specification:Ubuntu;letter-spacing:0;word-spacing:0;opacity:.54918;fill:#000;fill-opacity:1;stroke:none;filter:url(#filter5558-7-4)"/><path style="font-style:normal;font-variant:normal;font-weight:400;font-stretch:normal;font-size:72px;line-height:125%;font-family:Ubuntu;-inkscape-font-specification:Ubuntu;letter-spacing:0;word-spacing:0;fill:#fff;fill-opacity:1;stroke:#000;stroke-width:1;stroke-miterlimit:4;stroke-dasharray:none;stroke-opacity:1" id="path5182-7-6" d="m 434.08592,753.50356 c 0,0 -6.50484,4.67166 -6.50484,4.67166 0,0 54.68353,40.87827 54.68353,40.87827 4.52916,3.38575 8.89183,5.34184 13.06932,5.86081 4.17483,0.51866 8.73011,-0.45699 13.58007,-2.95819 0,0 -6.16586,-5.89314 -6.16586,-5.89314 -1.38842,0.51449 -2.63994,0.92205 -3.70989,1.18563 -1.13265,0.21869 -2.20286,0.25981 -3.25144,0.11951 -1.04873,-0.14028 -2.17253,-0.51028 -3.31092,-1.06995 -1.13728,-0.55911 -2.37658,-1.34496 -3.77586,-2.38044 0,0 -54.61411,-40.41416 -54.61411,-40.41416 0,0 0,0 0,0 m 90.10277,-42.04235 c 0,0 -5.30979,3.97779 -5.30979,3.97779 0,0 22.08703,14.69253 22.08703,14.69253 -1.43253,-0.0185 -3.29827,0.14242 -5.65009,0.50831 -2.30942,0.34333 -4.56097,1.03669 -6.73277,2.1009 -2.71593,1.33096 -4.60649,2.91836 -5.62109,4.75029 -0.97139,1.81873 -1.16341,3.79876 -0.57968,5.94902 0.58733,2.16333 1.92618,4.43973 4.03504,6.83683 2.1712,2.38592 5.0621,4.8014 8.59791,7.23469 3.73248,2.56863 7.53304,4.65985 11.47548,6.28528 3.94197,1.56206 7.81202,2.62525 11.59646,3.17408 3.78296,0.54865 7.40348,0.56811 10.8827,0.0846 3.46807,-0.4819 6.64699,-1.50681 9.50383,-3.075 3.0755,-1.68822 5.53666,-3.3359 7.33003,-4.98167 1.78304,-1.63631 3.12106,-3.05071 4.05621,-4.21693 0,0 -65.67127,-43.32077 -65.67127,-43.32077 0,0 0,0 0,0 m -112.43335,56.60393 c -1.46716,0.69013 -2.25662,1.64667 -2.35894,2.88348 -0.1,1.16972 0.6351,2.35282 2.22332,3.57628 1.59241,1.22669 3.3827,1.98615 5.35666,2.25145 1.97518,0.19306 3.69904,-0.0592 5.16469,-0.76564 1.46186,-0.7045 2.23286,-1.65188 2.30825,-2.82447 0.0763,-1.23984 -0.67444,-2.4822 -2.26513,-3.69084 -1.58656,-1.20548 -3.35913,-1.88342 -5.30915,-2.0761 -1.94879,-0.26306 -3.65629,-0.0424 -5.1197,0.64584 0,0 0,0 0,0 m 74.74641,-14.79255 c -2.36948,1.16098 -4.22348,2.64984 -5.52999,4.47118 -1.31414,1.83216 -1.89175,3.88128 -1.69541,6.18108 0.19767,2.31468 1.27272,4.84343 3.23714,7.60079 1.91873,2.73313 4.95018,5.60789 9.05819,8.59828 3.53307,2.57187 7.19436,4.75254 11.02832,6.52264 3.83837,1.70244 7.74053,2.88771 11.6569,3.5583 3.91597,0.67055 7.78577,0.76511 11.6697,0.28037 3.86195,-0.55598 7.56344,-1.81194 11.09322,-3.74952 2.78514,-1.52883 4.93549,-3.09261 6.46584,-4.70045 1.57302,-1.62712 2.52704,-2.88506 2.83556,-3.73882 0,0 -8.08341,-4.41784 -8.08341,-4.41784 -0.37816,0.80218 -1.18269,1.86447 -2.37062,3.18128 -1.20268,1.25209 -3.08523,2.54884 -5.6145,3.91309 -4.52274,2.43953 -9.13005,3.35543 -13.84784,2.6839 -4.7202,-0.67183 -9.69934,-2.70653 -14.88177,-6.04207 0,0 27.726,-14.44392 27.726,-14.44392 -0.42451,-0.35657 -0.8743,-0.72773 -1.40797,-1.09873 -0.59247,-0.41182 -1.07129,-0.7447 -1.42625,-0.9915 -7.87954,-5.47767 -15.1075,-8.76216 -21.72549,-9.95961 -6.67542,-1.23764 -12.70059,-0.53678 -18.18768,2.15157 0,0 6e-5,-2e-5 6e-5,-2e-5 m -60.2724,30.95605 c 0,0 46.94509,36.10553 46.94509,36.10553 0,0 8.12786,-4.45039 8.12786,-4.45039 0,0 -46.88583,-35.67706 -46.88583,-35.67706 0,0 -8.18712,4.02192 -8.18712,4.02192 0,0 0,0 0,0 m 67.00142,-26.05236 c 2.98223,-1.48482 6.46682,-1.81141 10.50655,-0.96316 4.03426,0.7816 7.86676,2.46635 11.51784,5.09113 0,0 -20.26093,10.39116 -20.26093,10.39116 -1.43635,-1.23228 -2.69729,-2.50707 -3.7467,-3.85279 -0.99259,-1.36828 -1.62762,-2.69673 -1.8912,-3.99175 -0.26261,-1.29041 -0.0598,-2.49208 0.51383,-3.62641 0.56647,-1.198 1.67882,-2.21075 3.36061,-3.04818 0,0 0,0 0,0 m 43.22517,-21.12873 c 1.82792,-0.91081 3.9024,-1.50728 6.17658,-1.77152 2.26961,-0.26363 4.17255,-0.32076 5.78258,-0.18919 0,0 28.98306,19.27983 28.98306,19.27983 -0.41677,0.51319 -1.12831,1.16533 -2.11225,1.98528 -0.99974,0.75671 -2.39231,1.62098 -4.1971,2.59445 -3.58228,1.93226 -7.93301,2.47796 -13.05494,1.64777 -5.18315,-0.87109 -10.46102,-3.12583 -15.8478,-6.79895 -2.35449,-1.60546 -4.37957,-3.20437 -6.03373,-4.80015 -1.64786,-1.58967 -2.74205,-3.0952 -3.30986,-4.52613 -0.62331,-1.46452 -0.68535,-2.83253 -0.1275,-4.06143 0.54676,-1.28704 1.80955,-2.39748 3.74096,-3.35996 0,0 0,0 0,0"/></g></svg>