<?xml version="1.0" encoding="UTF-8" standalone="no"?>
<svg
   xmlns:osb="http://www.openswatchbook.org/uri/2009/osb"
   xmlns:dc="http://purl.org/dc/elements/1.1/"
   xmlns:cc="http://creativecommons.org/ns#"
   xmlns:rdf="http://www.w3.org/1999/02/22-rdf-syntax-ns#"
   xmlns:svg="http://www.w3.org/2000/svg"
   xmlns="http://www.w3.org/2000/svg"
   xmlns:xlink="http://www.w3.org/1999/xlink"
   xmlns:sodipodi="http://sodipodi.sourceforge.net/DTD/sodipodi-0.dtd"
   xmlns:inkscape="http://www.inkscape.org/namespaces/inkscape"
   viewBox="0 0 15.999999 16"
   id="svg7384"
   height="16"
   width="16"
   version="1.1"
   inkscape:version="0.91 r13725"
   sodipodi:docname="gimp-plugin.svg">
  <sodipodi:namedview
     pagecolor="#ffffff"
     bordercolor="#666666"
     borderopacity="1"
     objecttolerance="10"
     gridtolerance="10"
     guidetolerance="10"
     inkscape:pageopacity="0"
     inkscape:pageshadow="2"
     inkscape:window-width="501"
     inkscape:window-height="405"
     id="namedview1512"
     showgrid="false"
     inkscape:zoom="14.75"
     inkscape:cx="-341.12923"
     inkscape:cy="487.1251"
     inkscape:window-x="0"
     inkscape:window-y="27"
     inkscape:window-maximized="0"
     inkscape:current-layer="svg7384" />
  <metadata
     id="metadata90">
    <rdf:RDF>
      <cc:Work
         rdf:about="">
        <dc:format>image/svg+xml</dc:format>
        <dc:type
           rdf:resource="http://purl.org/dc/dcmitype/StillImage" />
        <dc:title />
        <dc:contributor>
          <cc:Agent>
            <dc:title>Barbara Muraus, Jakub Steiner, Klaus Staedtler</dc:title>
          </cc:Agent>
        </dc:contributor>
        <dc:description>Images originally created as the &quot;Art Libre&quot; icon set. Extended and adopted for GIMP</dc:description>
      </cc:Work>
    </rdf:RDF>
  </metadata>
  <defs
     id="defs7386">
    <linearGradient
       osb:paint="solid"
       id="linearGradient8074">
      <stop
         id="stop8072"
         offset="0"
         style="stop-color:#be00be;stop-opacity:1;" />
    </linearGradient>
    <linearGradient
       osb:paint="solid"
       id="linearGradient7561">
      <stop
         id="stop7558"
         offset="0"
         style="stop-color:#a5a5a5;stop-opacity:1;" />
    </linearGradient>
    <linearGradient
       osb:paint="solid"
       id="linearGradient7548">
      <stop
         id="stop7546"
         offset="0"
         style="stop-color:#ebebeb;stop-opacity:1;" />
    </linearGradient>
    <linearGradient
       osb:paint="solid"
       id="linearGradient7542">
      <stop
         id="stop7538"
         offset="0"
         style="stop-color:#c9c9c9;stop-opacity:1;" />
    </linearGradient>
    <linearGradient
       gradientTransform="matrix(0,-735328.32,170712.69,0,2464326300,577972450)"
       osb:paint="solid"
       id="linearGradient19282">
      <stop
         id="stop19284"
         offset="0"
         style="stop-color:#b4b4b4;stop-opacity:1;" />
    </linearGradient>
    <linearGradient
       gradientTransform="matrix(0.34682586,0,0,0.30620888,-33.35187,142.03851)"
       osb:paint="solid"
       id="linearGradient19282-4">
      <stop
         id="stop19284-0"
         offset="0"
         style="stop-color:#bebebe;stop-opacity:1;" />
    </linearGradient>
    <linearGradient
       gradientTransform="translate(470.12943,283.03651)"
       gradientUnits="userSpaceOnUse"
       y2="406.03125"
       x2="-104"
       y1="406.03125"
       x1="-118"
       id="linearGradient7742"
       xlink:href="#linearGradient19282-4" />
    <linearGradient
       gradientTransform="translate(470.12943,283.03651)"
       gradientUnits="userSpaceOnUse"
       y2="627"
       x2="135.0002"
       y1="627"
       x1="131.0002"
       id="linearGradient7744"
       xlink:href="#linearGradient19282-4" />
    <linearGradient
       gradientTransform="translate(470.12943,283.03651)"
       gradientUnits="userSpaceOnUse"
       y2="631"
       x2="135.0002"
       y1="631"
       x1="121.0002"
       id="linearGradient7750"
       xlink:href="#linearGradient19282-4" />
    <linearGradient
       gradientTransform="translate(470.12943,283.03651)"
       gradientUnits="userSpaceOnUse"
       y2="410"
       x2="-113"
       y1="410"
       x1="-118"
       id="linearGradient7752"
       xlink:href="#linearGradient19282-4" />
    <linearGradient
       gradientTransform="translate(470.12943,283.03651)"
       gradientUnits="userSpaceOnUse"
       y2="625.5"
       x2="130.0002"
       y1="625.5"
       x1="127.0002"
       id="linearGradient7758"
       xlink:href="#linearGradient19282-4" />
    <linearGradient
       gradientTransform="translate(470.12943,283.03651)"
       gradientUnits="userSpaceOnUse"
       y2="628.5"
       x2="130.0002"
       y1="628.5"
       x1="127.0002"
       id="linearGradient7764"
       xlink:href="#linearGradient19282-4" />
  </defs>
  <g
     transform="translate(-12.31828,-116.00527)"
     style="display:inline"
     id="stock">
    <g
       id="gimp-plugin"
       style="display:inline"
       transform="translate(-108.68192,-502.99473)">
      <rect
         style="fill:none;stroke:none"
         id="rect7099"
         width="16"
         height="16"
         x="-120"
         y="402"
         transform="translate(241.0002,217)"
         rx="0.99999648"
         ry="0.99999648" />
      <rect
         style="fill:url(#linearGradient7758);fill-opacity:1;stroke:none"
         id="rect7144"
         width="3"
         height="1"
         x="127.0002"
         y="625"
         rx="0.59374648"
         ry="0.59374648" />
      <rect
         ry="0.59374648"
         rx="0.59374648"
         y="628"
         x="127.0002"
         height="1"
         width="3"
         id="rect7146"
         style="fill:url(#linearGradient7764);fill-opacity:1;stroke:none" />
      <path
         style="fill:url(#linearGradient7742);fill-opacity:1;stroke:none"
         d="m -117.40625,402 c -0.32894,0 -0.59375,0.26481 -0.59375,0.59375 l 0,1.40625 1,0 0,-0.40625 c 0,-0.32894 0.26481,-0.59375 0.59375,-0.59375 l 10.8125,0 c 0.32894,0 0.59375,0.26481 0.59375,0.59375 l 0,4.8125 c 0,0.32894 -0.26481,0.59375 -0.59375,0.59375 l -1.40625,0 0,1.0625 c 0,0 0,0 2.40625,0 0.32894,0 0.59375,-0.26481 0.59375,-0.59375 l 0,-6.875 C -104,402.26481 -104.26481,402 -104.59375,402 Z"
         transform="translate(241.0002,217)"
         id="rect7148"
         inkscape:connector-curvature="0" />
      <path
         id="path7156"
         d="m 134.40645,635 c 0.32894,0 0.59375,-0.26481 0.59375,-0.59375 l 0,-1.40625 -1,0 0,0.40625 c 0,0.32894 -0.26481,0.59375 -0.59375,0.59375 l -10.8125,0 c -0.32894,0 -0.59375,-0.26481 -0.59375,-0.59375 l 0,-4.8125 c 0,-0.32894 0.26481,-0.59375 0.59375,-0.59375 l 1.40625,0 0,-1 c 0,0 -1,0 -2.40625,0 -0.32894,0 -0.59375,0.26481 -0.59375,0.59375 l 0,6.8125 c 0,0.32894 0.26481,0.59375 0.59375,0.59375 z"
         style="fill:url(#linearGradient7750);fill-opacity:1;stroke:none"
         inkscape:connector-curvature="0" />
      <path
         style="fill:url(#linearGradient7752);fill-opacity:1;stroke:none"
         d="m -116,407 c -1.108,0 -2,0.892 -2,2 l 0,2 c 0,1.108 0.892,2 2,2 l 3,0 0,-2 0,-2 0,-2 z"
         transform="translate(241.0002,217)"
         id="rect7158"
         inkscape:connector-curvature="0" />
      <path
         id="path7165"
         d="m 133.0002,624 c 1.108,0 2,0.892 2,2 l 0,2 c 0,1.108 -0.892,2 -2,2 l -2,0 0,-2 0,-2 0,-2 z"
         style="fill:url(#linearGradient7744);fill-opacity:1;stroke:none"
         inkscape:connector-curvature="0" />
    </g>
  </g>
</svg>
