<?xml version="1.0" encoding="UTF-8" standalone="no"?>
<svg
   xmlns:dc="http://purl.org/dc/elements/1.1/"
   xmlns:cc="http://creativecommons.org/ns#"
   xmlns:rdf="http://www.w3.org/1999/02/22-rdf-syntax-ns#"
   xmlns:svg="http://www.w3.org/2000/svg"
   xmlns="http://www.w3.org/2000/svg"
   xmlns:sodipodi="http://sodipodi.sourceforge.net/DTD/sodipodi-0.dtd"
   xmlns:inkscape="http://www.inkscape.org/namespaces/inkscape"
   height="16"
   width="16"
   id="svg2"
   version="1.1"
   sodipodi:docname="random-rotation.svg"
   inkscape:version="0.92.5 (2060ec1f9f, 2020-04-08)">
  <sodipodi:namedview
     pagecolor="#ffffff"
     bordercolor="#666666"
     borderopacity="1"
     objecttolerance="10"
     gridtolerance="10"
     guidetolerance="10"
     inkscape:pageopacity="0"
     inkscape:pageshadow="2"
     inkscape:window-width="1200"
     inkscape:window-height="1563"
     id="namedview7"
     showgrid="true"
     inkscape:zoom="22.627417"
     inkscape:cx="7.2131739"
     inkscape:cy="3.5081687"
     inkscape:window-x="0"
     inkscape:window-y="0"
     inkscape:window-maximized="1"
     inkscape:current-layer="svg2">
    <inkscape:grid
       type="xygrid"
       id="grid4551" />
  </sodipodi:namedview>
  <metadata
     id="metadata12">
    <rdf:RDF>
      <cc:Work
         rdf:about="">
        <dc:format>image/svg+xml</dc:format>
        <dc:type
           rdf:resource="http://purl.org/dc/dcmitype/StillImage" />
        <dc:title />
      </cc:Work>
    </rdf:RDF>
  </metadata>
  <defs
     id="defs10" />
  <path
     style="fill:none;stroke:#666666;stroke-width:0.5;stroke-linecap:butt;stroke-linejoin:miter;stroke-miterlimit:4;stroke-dasharray:none;stroke-opacity:1"
     d="m 39.399214,28 c 1.575859,-0.07193 2.16598,1.929624 2.145904,1.941433 M 42,29 41.545118,29.941433 40.587453,29.653548"
     id="path4532"
     inkscape:connector-curvature="0"
     sodipodi:nodetypes="ccccc" />
  <g
     id="g834"
     transform="matrix(1.1408205,0,0,1.0703393,-2.4424242,-0.62283637)">
    <ellipse
       ry="0.75882411"
       rx="0.75882399"
       cx="-18.086094"
       cy="-7.7646222"
       transform="matrix(-0.99999954,9.5444091e-4,0.50082652,-0.86554769,0,0)"
       id="circle3564"
       style="fill:#404040;fill-opacity:1;stroke:#000000;stroke-width:0.5375818;stroke-miterlimit:4;stroke-dasharray:none;stroke-opacity:1" />
    <path
       style="fill:#404040;fill-opacity:1;fill-rule:evenodd;stroke:#404040;stroke-width:0.5;stroke-linecap:round;stroke-linejoin:round;stroke-miterlimit:4;stroke-dasharray:none;stroke-opacity:1"
       id="path3590"
       d="m 14.506852,3.8844155 c 0.433809,0.2602854 0.954379,0.867618 0.954379,1.301427 L 9.8797779,14.857441 C 9.6487153,15.000302 9.1482465,15.28801 8.4370965,15.041251 L 2.7940087,5.5328897 c -0.086762,-0.2602854 0,-1.3881888 0.867618,-1.735236 z"
       inkscape:connector-curvature="0" />
    <path
       style="fill:#ffffff;fill-opacity:1;stroke:#000000;stroke-width:0.5;stroke-miterlimit:4;stroke-dasharray:none"
       id="path3594"
       d="M 3.4854076,4.8239621 C 3.0550899,4.5760653 3.0550954,4.170442 3.4854131,3.9225455 L 8.2524365,1.1763662 c 0.4303007,-0.24788675 1.1344233,-0.24789647 1.5647407,0 l 4.7670238,2.7461793 c 0.430306,0.2478899 0.430306,0.6535295 5e-6,0.9014166 L 9.8171827,7.570141 c -0.4303173,0.2478969 -1.1344455,0.2478903 -1.5647518,0 z"
       inkscape:connector-curvature="0" />
    <path
       style="fill:#ffffff;fill-opacity:1;stroke:#000000;stroke-width:0.5;stroke-miterlimit:4;stroke-dasharray:none"
       id="path3608"
       d="m 9.1145819,14.53058 c 4.754e-4,0.496615 -0.3508089,0.699421 -0.7806525,0.450704 L 3.5721572,12.22601 C 3.1423306,11.977302 2.7902606,11.367518 2.7897869,10.870904 L 2.784536,5.3694509 C 2.7840606,4.8728496 3.135356,4.6700297 3.5651826,4.9187376 L 8.3269551,7.6740119 C 8.7567988,7.9227296 9.108857,8.5325258 9.109331,9.0291271 Z"
       inkscape:connector-curvature="0" />
    <path
       style="fill:#ffffff;fill-opacity:1;stroke:#000000;stroke-width:0.5;stroke-miterlimit:4;stroke-dasharray:none"
       id="path3622"
       d="m 14.670249,4.7731367 c 0.429843,-0.2487176 0.78112,-0.045901 0.780646,0.4507133 l -0.0052,5.501453 c -4.76e-4,0.496595 -0.352527,1.106388 -0.782371,1.355106 L 9.901502,14.835683 C 9.4716698,15.084394 9.1203755,14.881574 9.1208495,14.38498 l 0.00525,-5.5014537 C 9.1265758,8.3869118 9.4786441,7.7771221 9.9084763,7.5284111 Z"
       inkscape:connector-curvature="0" />
    <path
       sodipodi:nodetypes="ccccscccccsccccc"
       inkscape:connector-curvature="0"
       d="m 9.6197263,11.560628 0.00891,-2.854901 0.1153456,-0.232721 c 0.06344,-0.127997 0.17594,-0.291651 0.25,-0.363678 0.090186,-0.08771 0.9132421,-0.581201 2.4922801,-1.494333 1.296694,-0.749857 2.383447,-1.377195 2.415007,-1.394085 0.05551,-0.02971 0.0571,0.06235 0.04862,2.822458 l -0.0088,2.853167 -0.11236,0.234375 c -0.0618,0.128906 -0.170263,0.291966 -0.241032,0.362355 -0.08721,0.08674 -0.886777,0.566134 -2.48139,1.487755 -1.293994,0.747876 -2.3848501,1.37659 -2.4241232,1.397142 l -0.071405,0.03737 0.00891,-2.854901 v 0 z"
       id="path3958"
       style="fill:#c8c8c8;fill-opacity:1;stroke:none;stroke-width:0.5;stroke-miterlimit:4;stroke-dasharray:none" />
    <path
       inkscape:transform-center-y="0.11295316"
       inkscape:transform-center-x="0.085434423"
       sodipodi:nodetypes="cscccc"
       inkscape:connector-curvature="0"
       id="path4532-5"
       d="M 8.5922728,5.3302899 C 9.4131798,5.7572783 10.715867,5.1540046 10.40453,4.0325602 10.009845,2.610889 8.7481588,3.0891201 8.1016418,3.7507216 m 0.079312,-0.9716926 -0.07931,0.9716926 0.879469,0.2990543"
       style="fill:none;stroke:#000000;stroke-width:0.5;stroke-linecap:round;stroke-linejoin:miter;stroke-miterlimit:4;stroke-dasharray:none;stroke-opacity:1" />
    <path
       inkscape:transform-center-y="0.25311914"
       inkscape:transform-center-x="0.54850826"
       sodipodi:nodetypes="cscccc"
       inkscape:connector-curvature="0"
       id="path4532-5-4"
       d="M 4.878466,10.730118 C 4.239724,10.060629 4.456279,8.6414588 5.620062,8.6281142 7.0954061,8.6111971 6.9875243,9.9561576 6.5321825,10.761368 M 7.4433302,10.414544 6.5321825,10.761368 6,10"
       style="fill:none;stroke:#000000;stroke-width:0.5;stroke-linecap:round;stroke-linejoin:miter;stroke-miterlimit:4;stroke-dasharray:none;stroke-opacity:1" />
    <path
       sodipodi:nodetypes="cccccccc"
       inkscape:connector-curvature="0"
       d="m 10.39789,10.92324 3.882571,-2.2105021 m -3.720296,1.0425984 -0.162275,1.1679037 0.992103,0.456634 m 2.618331,-1.6671361 0.272137,-1 -0.799532,-0.4406245"
       style="fill:none;stroke:#000000;stroke-width:0.5;stroke-linecap:round;stroke-linejoin:miter;stroke-miterlimit:4;stroke-dasharray:none;stroke-opacity:1"
       id="path4532-5-4-2" />
  </g>
</svg>
