<?xml version="1.0" encoding="UTF-8" standalone="no"?>
<!-- Created with Inkscape (http://www.inkscape.org/) -->

<svg
   xmlns:dc="http://purl.org/dc/elements/1.1/"
   xmlns:cc="http://creativecommons.org/ns#"
   xmlns:rdf="http://www.w3.org/1999/02/22-rdf-syntax-ns#"
   xmlns:svg="http://www.w3.org/2000/svg"
   xmlns="http://www.w3.org/2000/svg"
   xmlns:xlink="http://www.w3.org/1999/xlink"
   xmlns:sodipodi="http://sodipodi.sourceforge.net/DTD/sodipodi-0.dtd"
   xmlns:inkscape="http://www.inkscape.org/namespaces/inkscape"
   width="419.40411"
   height="227.64597"
   id="svg4288"
   version="1.1"
   inkscape:version="0.48.4 r9939"
   sodipodi:docname="tiled-logo.svg"
   inkscape:export-filename="/home/bjorn/projects/bootstrap/img/tiled-logo-border.png"
   inkscape:export-xdpi="90"
   inkscape:export-ydpi="90">
  <defs
     id="defs4290">
    <linearGradient
       y2="122.36218"
       x2="301.22604"
       y1="122.36218"
       x1="34.293228"
       gradientTransform="translate(158.5,399)"
       gradientUnits="userSpaceOnUse"
       id="linearGradient3882"
       xlink:href="#linearGradient4735"
       inkscape:collect="always" />
    <linearGradient
       id="linearGradient4735">
      <stop
         style="stop-color:#cdd5ff;stop-opacity:1;"
         offset="0"
         id="stop4737" />
      <stop
         style="stop-color:#445fff;stop-opacity:1;"
         offset="1"
         id="stop4739" />
    </linearGradient>
    <filter
       color-interpolation-filters="sRGB"
       height="1.3034008"
       y="-0.15170041"
       width="1.1985166"
       x="-0.099258281"
       id="filter3831"
       inkscape:collect="always">
      <feGaussianBlur
         id="feGaussianBlur3833"
         stdDeviation="11.039705"
         inkscape:collect="always" />
    </filter>
    <filter
       id="filter5558-7"
       inkscape:collect="always"
       color-interpolation-filters="sRGB">
      <feGaussianBlur
         id="feGaussianBlur5560-7"
         stdDeviation="3.616818"
         inkscape:collect="always" />
    </filter>
  </defs>
  <sodipodi:namedview
     id="base"
     pagecolor="#7a7a7a"
     bordercolor="#666666"
     borderopacity="1.0"
     inkscape:pageopacity="1"
     inkscape:pageshadow="2"
     inkscape:zoom="1"
     inkscape:cx="235.52611"
     inkscape:cy="82.068606"
     inkscape:document-units="px"
     inkscape:current-layer="layer1"
     showgrid="false"
     fit-margin-top="0"
     fit-margin-left="0"
     fit-margin-right="0"
     fit-margin-bottom="0"
     inkscape:window-width="1341"
     inkscape:window-height="683"
     inkscape:window-x="126"
     inkscape:window-y="131"
     inkscape:window-maximized="0" />
  <metadata
     id="metadata4293">
    <rdf:RDF>
      <cc:Work
         rdf:about="">
        <dc:format>image/svg+xml</dc:format>
        <dc:type
           rdf:resource="http://purl.org/dc/dcmitype/StillImage" />
        <dc:title />
      </cc:Work>
    </rdf:RDF>
  </metadata>
  <g
     inkscape:label="Layer 1"
     inkscape:groupmode="layer"
     id="layer1"
     transform="translate(-165.29794,-418.5392)">
    <path
       inkscape:export-ydpi="90"
       inkscape:export-xdpi="90"
       style="opacity:0;fill:none;stroke:#cfc7c7;stroke-width:0.81335908px;stroke-linecap:butt;stroke-linejoin:miter;stroke-opacity:1"
       d="m 457.21437,556.17206 -69.95269,-53.8871 121.08875,-56.50055 68.11082,44.93005 z"
       id="path5271-9"
       inkscape:connector-curvature="0"
       sodipodi:nodetypes="ccccc" />
    <path
       inkscape:export-ydpi="90"
       inkscape:export-xdpi="90"
       inkscape:connector-curvature="0"
       id="path5536-4"
       d="m 420.24766,493.82676 c 0,0 -6.50484,4.67166 -6.50484,4.67166 0,0 54.68353,40.87827 54.68353,40.87827 4.52916,3.38576 8.89183,5.34185 13.06932,5.86082 4.17483,0.51866 8.73011,-0.45699 13.58007,-2.95819 0,0 -6.16586,-5.89315 -6.16586,-5.89315 -1.38842,0.51449 -2.63994,0.92205 -3.70989,1.18563 -1.13265,0.21869 -2.20286,0.25981 -3.25144,0.11951 -1.04873,-0.14028 -2.17253,-0.51028 -3.31092,-1.06995 -1.13728,-0.55911 -2.37658,-1.34496 -3.77586,-2.38044 0,0 -54.61411,-40.41416 -54.61411,-40.41416 0,0 0,0 0,0 m 90.10277,-42.04235 c 0,0 -5.30979,3.97779 -5.30979,3.97779 0,0 22.08703,14.69253 22.08703,14.69253 -1.43253,-0.0185 -3.29827,0.14242 -5.65009,0.50831 -2.30942,0.34333 -4.56097,1.03669 -6.73277,2.1009 -2.71593,1.33096 -4.60649,2.91836 -5.62109,4.75028 -0.97139,1.81874 -1.16341,3.79877 -0.57968,5.94903 0.58733,2.16333 1.92618,4.43973 4.03504,6.83683 2.1712,2.38592 5.0621,4.8014 8.59791,7.23469 3.73248,2.56863 7.53304,4.65985 11.47548,6.28528 3.94197,1.56206 7.81202,2.62525 11.59646,3.17408 3.78296,0.54865 7.40348,0.56811 10.8827,0.0846 3.46807,-0.4819 6.64699,-1.50681 9.50383,-3.075 3.0755,-1.68822 5.53666,-3.3359 7.33003,-4.98167 1.78304,-1.63631 3.12106,-3.05071 4.05621,-4.21693 0,0 -65.67127,-43.32077 -65.67127,-43.32077 0,0 0,0 0,0 m -112.43335,56.60393 c -1.46716,0.69013 -2.25662,1.64667 -2.35894,2.88348 -0.1,1.16972 0.6351,2.35282 2.22332,3.57628 1.59241,1.22669 3.3827,1.98615 5.35666,2.25145 1.97518,0.19306 3.69904,-0.0592 5.16469,-0.76564 1.46186,-0.7045 2.23286,-1.65188 2.30825,-2.82447 0.0763,-1.23984 -0.67444,-2.4822 -2.26513,-3.69084 -1.58656,-1.20548 -3.35913,-1.88342 -5.30915,-2.0761 -1.94879,-0.26306 -3.65629,-0.0424 -5.1197,0.64584 0,0 0,0 0,0 m 74.74641,-14.79255 c -2.36948,1.16098 -4.22348,2.64984 -5.52999,4.47118 -1.31414,1.83216 -1.89175,3.88128 -1.69541,6.18108 0.19767,2.31468 1.27272,4.84343 3.23714,7.60079 1.91873,2.73313 4.95018,5.60789 9.05819,8.59828 3.53307,2.57187 7.19436,4.75254 11.02832,6.52264 3.83837,1.70244 7.74053,2.88771 11.6569,3.5583 3.91597,0.67055 7.78577,0.76511 11.6697,0.28037 3.86195,-0.55598 7.56344,-1.81194 11.09322,-3.74952 2.78514,-1.52883 4.93549,-3.09261 6.46584,-4.70045 1.57302,-1.62712 2.52704,-2.88506 2.83556,-3.73882 0,0 -8.08341,-4.41784 -8.08341,-4.41784 -0.37816,0.80218 -1.18269,1.86447 -2.37062,3.18128 -1.20268,1.25209 -3.08523,2.54884 -5.6145,3.91309 -4.52274,2.43953 -9.13005,3.35543 -13.84784,2.6839 -4.7202,-0.67183 -9.69934,-2.70653 -14.88177,-6.04207 0,0 27.726,-14.44392 27.726,-14.44392 -0.42451,-0.35657 -0.8743,-0.72773 -1.40797,-1.09873 -0.59247,-0.41182 -1.07129,-0.7447 -1.42625,-0.9915 -7.87954,-5.47767 -15.1075,-8.76216 -21.72549,-9.95961 -6.67542,-1.23764 -12.70059,-0.53678 -18.18768,2.15157 0,0 6e-5,-2e-5 6e-5,-2e-5 m -60.2724,30.95605 c 0,0 46.94509,36.10553 46.94509,36.10553 0,0 8.12786,-4.45039 8.12786,-4.45039 0,0 -46.88583,-35.67706 -46.88583,-35.67706 0,0 -8.18712,4.02192 -8.18712,4.02192 0,0 0,0 0,0 m 67.00142,-26.05236 c 2.98223,-1.48482 6.46682,-1.81141 10.50655,-0.96316 4.03426,0.7816 7.86676,2.46635 11.51784,5.09113 0,0 -20.26093,10.39116 -20.26093,10.39116 -1.43635,-1.23228 -2.69729,-2.50707 -3.7467,-3.85279 -0.99259,-1.36828 -1.62762,-2.69673 -1.8912,-3.99175 -0.26261,-1.29041 -0.0598,-2.49208 0.51383,-3.62641 0.56647,-1.198 1.67882,-2.21075 3.36061,-3.04818 0,0 0,0 0,0 m 43.22517,-21.12874 c 1.82792,-0.9108 3.9024,-1.50727 6.17658,-1.77151 2.26961,-0.26364 4.17255,-0.32076 5.78258,-0.1892 0,0 28.98306,19.27984 28.98306,19.27984 -0.41677,0.51319 -1.12831,1.16533 -2.11225,1.98528 -0.99974,0.75671 -2.39231,1.62098 -4.1971,2.59445 -3.58228,1.93226 -7.93301,2.47796 -13.05494,1.64777 -5.18315,-0.87109 -10.46102,-3.12583 -15.8478,-6.79895 -2.35449,-1.60546 -4.37957,-3.20437 -6.03373,-4.80015 -1.64786,-1.58967 -2.74205,-3.0952 -3.30986,-4.52613 -0.62331,-1.46452 -0.68535,-2.83253 -0.1275,-4.06143 0.54676,-1.28705 1.80955,-2.39748 3.74096,-3.35997 0,0 0,0 0,0"
       style="font-size:72px;font-style:normal;font-variant:normal;font-weight:normal;font-stretch:normal;line-height:125%;letter-spacing:0px;word-spacing:0px;opacity:0.54918033;fill:#000000;fill-opacity:1;stroke:none;filter:url(#filter5558-7);font-family:Ubuntu;-inkscape-font-specification:Ubuntu" />
    <path
       inkscape:export-ydpi="90"
       inkscape:export-xdpi="90"
       style="font-size:72px;font-style:normal;font-variant:normal;font-weight:normal;font-stretch:normal;line-height:125%;letter-spacing:0px;word-spacing:0px;fill:#ffffff;fill-opacity:1;stroke:none;font-family:Ubuntu;-inkscape-font-specification:Ubuntu"
       d="m 418.24766,487.82676 c 0,0 -6.50484,4.67166 -6.50484,4.67166 0,0 54.68353,40.87827 54.68353,40.87827 4.52916,3.38575 8.89183,5.34184 13.06932,5.86081 4.17483,0.51866 8.73011,-0.45699 13.58007,-2.95819 0,0 -6.16586,-5.89314 -6.16586,-5.89314 -1.38842,0.51449 -2.63994,0.92205 -3.70989,1.18563 -1.13265,0.21869 -2.20286,0.25981 -3.25144,0.11951 -1.04873,-0.14028 -2.17253,-0.51028 -3.31092,-1.06995 -1.13728,-0.55911 -2.37658,-1.34496 -3.77586,-2.38044 0,0 -54.61411,-40.41416 -54.61411,-40.41416 0,0 0,0 0,0 m 90.10277,-42.04235 c 0,0 -5.30979,3.97779 -5.30979,3.97779 0,0 22.08703,14.69253 22.08703,14.69253 -1.43253,-0.0185 -3.29827,0.14242 -5.65009,0.50831 -2.30942,0.34333 -4.56097,1.03669 -6.73277,2.1009 -2.71593,1.33096 -4.60649,2.91836 -5.62109,4.75029 -0.97139,1.81873 -1.16341,3.79876 -0.57968,5.94902 0.58733,2.16333 1.92618,4.43973 4.03504,6.83683 2.1712,2.38592 5.0621,4.8014 8.59791,7.23469 3.73248,2.56863 7.53304,4.65985 11.47548,6.28528 3.94197,1.56206 7.81202,2.62525 11.59646,3.17408 3.78296,0.54865 7.40348,0.56811 10.8827,0.0846 3.46807,-0.4819 6.64699,-1.50681 9.50383,-3.075 3.0755,-1.68822 5.53666,-3.3359 7.33003,-4.98167 1.78304,-1.63631 3.12106,-3.05071 4.05621,-4.21693 0,0 -65.67127,-43.32077 -65.67127,-43.32077 0,0 0,0 0,0 m -112.43335,56.60393 c -1.46716,0.69013 -2.25662,1.64667 -2.35894,2.88348 -0.1,1.16972 0.6351,2.35282 2.22332,3.57628 1.59241,1.22669 3.3827,1.98615 5.35666,2.25145 1.97518,0.19306 3.69904,-0.0592 5.16469,-0.76564 1.46186,-0.7045 2.23286,-1.65188 2.30825,-2.82447 0.0763,-1.23984 -0.67444,-2.4822 -2.26513,-3.69084 -1.58656,-1.20548 -3.35913,-1.88342 -5.30915,-2.0761 -1.94879,-0.26306 -3.65629,-0.0424 -5.1197,0.64584 0,0 0,0 0,0 m 74.74641,-14.79255 c -2.36948,1.16098 -4.22348,2.64984 -5.52999,4.47118 -1.31414,1.83216 -1.89175,3.88128 -1.69541,6.18108 0.19767,2.31468 1.27272,4.84343 3.23714,7.60079 1.91873,2.73313 4.95018,5.60789 9.05819,8.59828 3.53307,2.57187 7.19436,4.75254 11.02832,6.52264 3.83837,1.70244 7.74053,2.88771 11.6569,3.5583 3.91597,0.67055 7.78577,0.76511 11.6697,0.28037 3.86195,-0.55598 7.56344,-1.81194 11.09322,-3.74952 2.78514,-1.52883 4.93549,-3.09261 6.46584,-4.70045 1.57302,-1.62712 2.52704,-2.88506 2.83556,-3.73882 0,0 -8.08341,-4.41784 -8.08341,-4.41784 -0.37816,0.80218 -1.18269,1.86447 -2.37062,3.18128 -1.20268,1.25209 -3.08523,2.54884 -5.6145,3.91309 -4.52274,2.43953 -9.13005,3.35543 -13.84784,2.6839 -4.7202,-0.67183 -9.69934,-2.70653 -14.88177,-6.04207 0,0 27.726,-14.44392 27.726,-14.44392 -0.42451,-0.35657 -0.8743,-0.72773 -1.40797,-1.09873 -0.59247,-0.41182 -1.07129,-0.7447 -1.42625,-0.9915 -7.87954,-5.47767 -15.1075,-8.76216 -21.72549,-9.95961 -6.67542,-1.23764 -12.70059,-0.53678 -18.18768,2.15157 0,0 6e-5,-2e-5 6e-5,-2e-5 m -60.2724,30.95605 c 0,0 46.94509,36.10553 46.94509,36.10553 0,0 8.12786,-4.45039 8.12786,-4.45039 0,0 -46.88583,-35.67706 -46.88583,-35.67706 0,0 -8.18712,4.02192 -8.18712,4.02192 0,0 0,0 0,0 m 67.00142,-26.05236 c 2.98223,-1.48482 6.46682,-1.81141 10.50655,-0.96316 4.03426,0.7816 7.86676,2.46635 11.51784,5.09113 0,0 -20.26093,10.39116 -20.26093,10.39116 -1.43635,-1.23228 -2.69729,-2.50707 -3.7467,-3.85279 -0.99259,-1.36828 -1.62762,-2.69673 -1.8912,-3.99175 -0.26261,-1.29041 -0.0598,-2.49208 0.51383,-3.62641 0.56647,-1.198 1.67882,-2.21075 3.36061,-3.04818 0,0 0,0 0,0 m 43.22517,-21.12873 c 1.82792,-0.91081 3.9024,-1.50728 6.17658,-1.77152 2.26961,-0.26363 4.17255,-0.32076 5.78258,-0.18919 0,0 28.98306,19.27983 28.98306,19.27983 -0.41677,0.51319 -1.12831,1.16533 -2.11225,1.98528 -0.99974,0.75671 -2.39231,1.62098 -4.1971,2.59445 -3.58228,1.93226 -7.93301,2.47796 -13.05494,1.64777 -5.18315,-0.87109 -10.46102,-3.12583 -15.8478,-6.79895 -2.35449,-1.60546 -4.37957,-3.20437 -6.03373,-4.80015 -1.64786,-1.58967 -2.74205,-3.0952 -3.30986,-4.52613 -0.62331,-1.46452 -0.68535,-2.83253 -0.1275,-4.06143 0.54676,-1.28704 1.80955,-2.39748 3.74096,-3.35996 0,0 0,0 0,0"
       id="path5182-7"
       inkscape:connector-curvature="0" />
    <path
       inkscape:export-ydpi="90"
       inkscape:export-xdpi="90"
       inkscape:connector-curvature="0"
       id="path4523"
       style="opacity:0.7;fill:#0d1339;fill-opacity:1;stroke:none;filter:url(#filter3831)"
       d="m 356.03409,577.98945 57,-29.625 m -96.375,-6 55.75,-25.875 m -90.25,-5.75 55,-22.5 m 0.25,0.125 -32.875,-26.125 m -53.75,19.75 31.625,28.625 m -90.61586,-6.53654 159.09903,-59.04342 33.94113,23.68808 -47.7297,19.62221 121.62235,96.52008 -57.27564,34.82501 -119.14749,-108.89445 -60.45764,25.10229 z" />
    <path
       inkscape:export-ydpi="90"
       inkscape:export-xdpi="90"
       d="m 357.03409,566.98945 57,-29.625 m -96.375,-6 55.75,-25.875 m -90.25,-5.75 55,-22.5 m 0.25,0.125 -32.875,-26.125 m -53.75,19.75 31.625,28.625 m -90.61586,-6.53654 159.09903,-59.04342 33.94113,23.68808 -47.7297,19.62221 121.62235,96.52008 -57.27564,34.82501 -119.14749,-108.89445 -60.45764,25.10229 z"
       style="opacity:0.8;fill:url(#linearGradient3882);fill-opacity:1;stroke:none"
       id="path4519"
       inkscape:connector-curvature="0" />
    <path
       inkscape:export-ydpi="90"
       inkscape:export-xdpi="90"
       inkscape:connector-curvature="0"
       id="path4640"
       style="fill:none;stroke:#ffffff;stroke-width:2;stroke-linecap:butt;stroke-linejoin:miter;stroke-miterlimit:4;stroke-opacity:1;stroke-dasharray:none"
       d="m 357.03409,566.98945 57,-29.625 m -96.375,-6 55.75,-25.875 m -90.25,-5.75 55,-22.5 m 0.25,0.125 -32.875,-26.125 m -53.75,19.75 31.625,28.625 m -90.61586,-6.53654 159.09903,-59.04342 33.94113,23.68808 -47.7297,19.62221 121.62235,96.52008 -57.27564,34.82501 -119.14749,-108.89445 -60.45764,25.10229 z" />
  </g>
</svg>
